<?xml version="1.0" encoding="UTF-8" standalone="no"?>
<svg
   xmlns:dc="http://purl.org/dc/elements/1.1/"
   xmlns:cc="http://creativecommons.org/ns#"
   xmlns:rdf="http://www.w3.org/1999/02/22-rdf-syntax-ns#"
   xmlns:svg="http://www.w3.org/2000/svg"
   xmlns="http://www.w3.org/2000/svg"
   viewBox="0 0 3333.3333 3333.3333"
   height="3333.3333"
   width="3333.3333"
   xml:space="preserve"
   id="svg2"
   version="1.1"><metadata
     id="metadata8"><rdf:RDF><cc:Work
         rdf:about=""><dc:format>image/svg+xml</dc:format><dc:type
           rdf:resource="http://purl.org/dc/dcmitype/StillImage" /><dc:title></dc:title></cc:Work></rdf:RDF></metadata><defs
     id="defs6" /><g
     transform="matrix(1.3333333,0,0,-1.3333333,0,3333.3333)"
     id="g10"><g
       transform="scale(0.1)"
       id="g12"><g
         transform="scale(1.53374)"
         id="g14"><path
           id="path16"
           style="fill:none;fill-opacity:1;fill-rule:nonzero;stroke:none"
           d="M 16300,0 H 0 V 16300 H 16300 V 0" /></g><path
         id="path18"
         style="fill:#336548;fill-opacity:1;fill-rule:nonzero;stroke:none"
         d="m 12691.2,6233.1 114.1,-21.6 c 109.4,578.4 375.2,1124.4 632.2,1652.4 269.9,554.4 548.9,1127.7 652.8,1745.7 49.2,292.7 58.4,592.6 67.2,882.6 5.2,168.3 10.5,342.3 23.6,512.1 43.3,558.9 179.3,975.1 415.8,1272.3 l -90.8,72.3 c -251.5,-315.9 -395.7,-752.8 -440.7,-1335.6 -13.4,-172.5 -18.7,-347.9 -23.9,-517.5 -8.7,-286.2 -17.8,-582.1 -65.7,-866.9 -101.1,-601.6 -376.4,-1167.2 -642.7,-1714.1 -260.3,-534.9 -529.6,-1088 -641.9,-1681.7" /><g
         transform="scale(1.02109)"
         id="g20"><path
           id="path22"
           style="fill:#5bc284;fill-opacity:1;fill-rule:nonzero;stroke:none"
           d="m 13061.5,5581.08 141.3,-15.28 c 166.1,1541.1 583.5,3034.31 1240.5,4438 155.6,332.7 327.5,665.4 493.7,987.2 281,543.8 571.7,1106.1 794.9,1689.1 375.2,979.6 568.1,2051.8 557.7,3100.8 l -142.1,-1.4 c 10.1,-1031.3 -179.5,-2085.5 -548.3,-3048.6 -220.5,-575.5 -509.2,-1134.3 -788.4,-1674.7 -166.9,-323 -339.4,-656.9 -496.3,-992.1 -663.6,-1418.06 -1085.2,-2926.35 -1253,-4483.02" /></g><path
         id="path24"
         style="fill:#336548;fill-opacity:1;fill-rule:nonzero;stroke:none"
         d="m 12947.1,9827.3 c 39.7,-130.9 -5,-270.2 -12.8,-406.5 -9.2,-158.4 41.7,-331.5 171.4,-422.9 123.8,-87.3 287.8,-82.4 437.6,-66.4 194.4,20.8 389.3,55 569.6,130.4 14.7,6.1 30.7,13.9 36.5,28.8 6.4,16.7 -2.4,35.2 -12.1,50.3 -64.3,100.1 -171.9,161.9 -273.4,223.4 -128.1,77.7 -256.7,164.6 -338.3,290.6 -59.4,91.8 -94.3,204.3 -181,270.6 -90.4,69.2 -389.2,131.3 -470.6,46.4 29.1,-46.3 48.3,-96.3 73.1,-144.7" /><g
         transform="scale(1.29144)"
         id="g26"><path
           id="path28"
           style="fill:#5bc284;fill-opacity:1;fill-rule:nonzero;stroke:none"
           d="m 13203.8,14667.8 c 102.3,-163.7 203.5,-337 220.5,-529.3 25.1,-285 -137.1,-547.7 -230.5,-818.1 -139.9,-404.4 -128.7,-849.5 -272.9,-1252.3 -33.3,-93 -114,-201.3 -206.1,-165.9 -42.2,16.2 -67.7,58.5 -86.7,99.3 -88.7,191 -102.4,406.8 -147.7,612.4 -49.6,225.3 -139,441.8 -262.5,636.5 -139.1,219.2 -320.4,409.9 -452,633.6 -131.6,223.7 -210.6,499.8 -120.7,743.3 79.6,215.6 282.4,382.3 308.5,610.6 16,139.1 -37.6,275.5 -84.1,407.6 -46.4,132 -86.8,276.3 -45.2,410 45.2,145.3 211.9,244.5 350,160.8 129,-78.2 169.6,-281.6 240.3,-405.7 226.7,-397.5 545.3,-752.7 789.1,-1142.8" /></g><path
         id="path30"
         style="fill:#5bc284;fill-opacity:1;fill-rule:nonzero;stroke:none"
         d="m 12645.2,10515.8 c -116.4,-39.3 -251.5,-126.8 -227.6,-247.3 10.1,-51 48.4,-91.8 89.7,-123.3 171.6,-130.6 425.8,-156.1 542.7,-337.2 104.4,-161.7 61.6,-399.3 198.8,-534.2 143.4,-140.8 387,-80.3 571.5,-159.9 38.5,-16.6 74.3,-39.3 113.9,-53 168,-57.8 357,75.3 410.9,244.6 114.1,358.2 -216.8,837.8 -479.6,1061.9 -334.3,284.9 -826.2,281.5 -1220.3,148.4" /><path
         id="path32"
         style="fill:#336548;fill-opacity:1;fill-rule:nonzero;stroke:none"
         d="m 14748.9,13390.1 c 9.6,-234.3 -124.2,-449.8 -272.6,-631.3 -148.4,-181.6 -319.7,-351.6 -410.3,-567.9 -90.6,-216.2 -75.4,-500.5 109.3,-645.1 19,-14.9 40.2,-28.3 64,-32.6 66,-11.8 123.8,50.3 143.8,114.3 19.9,63.9 16.6,133.4 37.5,197.1 62.2,188.8 299.7,248 498.5,248.6 198.8,0.5 419.8,-20.6 574.1,104.8 97.3,79.2 146.4,201.7 191.7,318.7 124.8,322.6 249.5,645.2 374.3,967.9 38.2,98.5 76.5,198 94,302.3 73.1,437.1 -301.5,894.1 -744.5,908.3 -173.2,5.5 -343.5,-46.8 -502.4,-115.9 -165.6,-71.9 -667.4,-274.7 -603,-507.1 24.9,-90 238.1,-202.8 299.8,-285.9 82.3,-110.7 140.1,-236.5 145.8,-376.2" /><g
         transform="scale(1.27389)"
         id="g34"><path
           id="path36"
           style="fill:#336548;fill-opacity:1;fill-rule:nonzero;stroke:none"
           d="m 13394,9497.06 c 203.7,150.48 475.4,201.74 651.6,383.55 211.1,217.59 224.2,553.09 231.2,856.09 7.1,303 36.9,642 265.6,840.9 149.1,129.9 356.1,172.7 516.7,288.2 402.9,289.7 405.2,937.8 809,1226.3 91.4,65.4 198.7,107.7 284.3,180.6 85.7,72.8 147.6,192.9 105.8,297.2 -63,156.7 -283.5,153.1 -448.9,119.2 -205,-42.1 -410.7,-89.1 -601.7,-174.5 -444.6,-198.7 -774.9,-589.5 -1032.2,-1003.1 -120.9,-194.5 -233.8,-401.9 -413.5,-543.8 -181,-142.7 -420,-210.6 -570.6,-385.1 -72.7,-84 -119.3,-187.5 -154.3,-292.9 -155.5,-468 -101.2,-998.1 -325.8,-1437.2 -46.9,-91.68 -105.3,-177.56 -146.2,-272.15 -118.8,-274.83 -69.6,-614.58 122.1,-844.59 194.6,-233.22 301.8,105.75 342.1,245.48 57.5,198.83 197.9,392.42 364.8,515.82" /></g><g
         transform="scale(1.07387)"
         id="g38"><path
           id="path40"
           style="fill:#336548;fill-opacity:1;fill-rule:nonzero;stroke:none"
           d="m 16233.4,9152.08 c 15.3,-14.62 30.4,-30.08 39.8,-48.89 26.8,-53.54 -0.8,-121.8 -48.1,-158.4 -47.4,-36.6 -109.1,-48.14 -168.6,-54.29 -181.7,-18.71 -365.3,2.98 -547.8,-7.26 -182.4,-10.15 -373.4,-58.11 -500.8,-189.04 -145.2,-149.36 -190.4,-388.04 -366.5,-499.32 -114.5,-72.35 -259.6,-73.1 -394.5,-58.75 -97.4,10.33 -201.1,30.63 -270.5,100.1 -78.4,78.59 -92.7,198.63 -136.9,300.5 -45.7,105.79 -127.9,203.57 -122.8,318.57 5.8,129.53 124,228.52 247,269.59 237,79.06 462.9,77.85 690.9,198.44 161.2,85.11 307.3,146.57 490.8,171.35 389.1,52.7 803.3,-68.45 1088,-342.6" /></g><g
         transform="scale(1.18032)"
         id="g42"><path
           id="path44"
           style="fill:#5bc284;fill-opacity:1;fill-rule:nonzero;stroke:none"
           d="m 14602.6,10545.2 c 152.2,53.3 312.9,100.2 472.7,78.3 153.5,-21 290.8,-103.4 422.3,-185.4 206.1,-128.6 409.9,-260.9 611.3,-396.7 63.2,-42.75 130.3,-91.13 152.9,-163.9 38.2,-123.27 -78.8,-249.93 -205.5,-274.5 -126.6,-24.66 -255,20.5 -378,59.39 -159.5,50.32 -325.5,91.41 -492.3,79.72 -166.8,-11.61 -336.4,-82.94 -433,-219.52 -67.7,-95.65 -96.3,-216.8 -174.4,-304.15 -132.3,-147.93 -372.4,-162.58 -498.8,-315.59 -140.6,-169.96 -81.9,-433.87 -189,-626.7 -122,-219.43 -409.1,-274.16 -659.5,-290.77 -119.2,-7.88 -244,-11.43 -351.9,39.31 -158.7,74.56 -243.5,246.21 -316.5,405.57 -27.6,60.07 -55.7,122.93 -53.5,189.02 2.7,78.54 47.5,148.52 91.4,213.76 248.5,369.05 509.7,810.71 826.9,1123.17 286,281.59 803.5,458.89 1174.9,588.99" /></g><path
         id="path46"
         style="fill:#5bc284;fill-opacity:1;fill-rule:nonzero;stroke:none"
         d="m 13120.9,14079.1 c -221,-394.3 -387.3,-875.9 -207.5,-1290.5 24.1,-55.6 56.2,-111 107.5,-143.3 146.3,-92.1 330.7,54.7 409.3,208.7 78.6,154 133.1,343.3 289.6,416.6 151,70.6 343,1.9 488.2,83.8 158.8,89.5 180.7,305.8 277.7,460.2 165.6,263.3 548.7,313.3 835.6,193.1 171.4,-71.8 362.1,-193.2 525.6,-104.9 193.7,104.6 149.2,403.7 18.2,580.7 -202.3,273.3 -530.9,431.1 -864.8,495.3 -350.3,67.4 -788.1,108.8 -1106.6,-63.9 -342.4,-185.8 -585.9,-502.3 -772.8,-835.8" /><path
         id="path48"
         style="fill:#5bc284;fill-opacity:1;fill-rule:nonzero;stroke:none"
         d="m 13598.5,5897.4 143.8,-19.6 c 244.8,1797.2 1042.8,3533.9 2247.1,4890.3 l -108.6,96.3 C 14657.7,9486.8 13847.1,7722.8 13598.5,5897.4" /><path
         id="path50"
         style="fill:#336548;fill-opacity:1;fill-rule:nonzero;stroke:none"
         d="m 13958.9,5664.4 c 262.1,380.3 330.6,842.2 396.9,1288.8 31.5,212.2 64,431.5 117,637.5 156.1,607.2 510.6,1158.5 998.3,1552.5 l -91.2,112.9 c -511.8,-413.5 -883.8,-992.1 -1047.7,-1629.3 -54.8,-213.3 -87.9,-436.5 -119.9,-652.3 -66.8,-450.1 -129.9,-875.2 -372.9,-1227.8 l 119.5,-82.3" /><path
         id="path52"
         style="fill:#5bc284;fill-opacity:1;fill-rule:nonzero;stroke:none"
         d="m 13041.4,6276.5 145.1,1.6 c -4.7,422.3 137,837.1 399.1,1168.1 70.2,88.6 150.8,173.3 228.7,255.3 111.4,117.2 226.7,238.4 319.3,377.8 289.2,435.9 319.7,1017.1 77.7,1480.8 l -128.6,-67.1 c 214.5,-411.1 186.4,-947 -70.1,-1333.4 -85.5,-128.9 -191.4,-240.2 -303.5,-358.1 -80.1,-84.3 -163,-171.4 -237.3,-265.2 -282.6,-357 -435.5,-804.4 -430.4,-1259.8" /><g
         transform="scale(1.17158)"
         id="g54"><path
           id="path56"
           style="fill:#f57a73;fill-opacity:1;fill-rule:nonzero;stroke:none"
           d="m 16271.2,5414.98 28.8,-379.23 h -219.2 l -41.1,389.22 231.5,-9.99" /></g><g
         transform="scale(1.17222)"
         id="g58"><path
           id="path60"
           style="fill:#171e3c;fill-opacity:1;fill-rule:nonzero;stroke:none"
           d="m 15688.1,4961.01 c 0.4,23.72 15.2,44.62 37.3,52.64 l 284.5,104.16 c 11.8,4.35 24.9,2.9 35.9,-3.5 32.1,-18.68 71.6,-29 112.4,-29 h 115.9 c 14.3,0 25.9,-11.69 25.9,-26.11 v -116.87 h -612.2 c -0.1,0.08 0.3,18.68 0.3,18.68" /></g><g
         transform="scale(1.17222)"
         id="g62"><path
           id="path64"
           style="fill:#292651;fill-opacity:1;fill-rule:nonzero;stroke:none"
           d="m 16300,4926.29 c 0,-19.53 -15.8,-35.49 -35.2,-35.49 h -525.7 c -28.3,0 -51,23.12 -51.3,51.53 h 612.2 v -16.04" /></g><g
         transform="scale(1.25236)"
         id="g66"><path
           id="path68"
           style="fill:#f57a73;fill-opacity:1;fill-rule:nonzero;stroke:none"
           d="m 16252.2,5106.11 47.8,-352.53 -204.7,-12.3 -59.9,361.16 216.8,3.67" /></g><g
         transform="scale(1.25405)"
         id="g70"><path
           id="path72"
           style="fill:#171e3c;fill-opacity:1;fill-rule:nonzero;stroke:none"
           d="m 15728,4636.42 c 0.4,22.09 14.3,41.71 34.9,49.2 l 265.9,97.37 c 11.2,4.06 23.4,2.63 33.6,-3.27 30,-17.46 66.9,-27.11 105.1,-27.11 h 108.3 c 13.4,0 24.2,-10.93 24.2,-24.41 v -109.32 h -572.1 c -0.2,0.16 0.1,17.54 0.1,17.54" /></g><g
         transform="scale(1.25405)"
         id="g74"><path
           id="path76"
           style="fill:#292651;fill-opacity:1;fill-rule:nonzero;stroke:none"
           d="m 16300,4603.97 c 0,-18.34 -14.8,-33.18 -32.9,-33.18 h -491.4 c -26.4,0 -47.7,21.62 -47.8,48.09 h 572.1 v -14.91" /></g><g
         transform="scale(1.15933)"
         id="g78"><path
           id="path80"
           style="fill:#292651;fill-opacity:1;fill-rule:nonzero;stroke:none"
           d="m 15966,11252.1 c -18.4,-25.4 -39.9,-48.8 -53.9,-76.8 -18.4,-36.6 -22.6,-78.3 -35.2,-117.2 -22.1,-68 -68.8,-124.8 -114.5,-179.6 -23.3,-28.1 -48.9,-57.6 -84.1,-67.3 110.8,201.4 85.1,454.5 186,661 12,24.5 26.1,48.6 46.8,66.3 20.7,17.7 236.1,640.9 262.5,634.5 126.4,-30.6 -165.7,-863.1 -207.6,-920.9" /></g><g
         transform="scale(1.11674)"
         id="g82"><path
           id="path84"
           style="fill:#ebc8bf;fill-opacity:1;fill-rule:nonzero;stroke:none"
           d="m 16058,11803.5 c 36.5,-49.1 85.4,-90.2 114.2,-144 36,-67.1 40.8,-153.5 101.9,-201.6 7.5,-5.8 16,-11.4 19.4,-20 6.5,-15.6 -6,-32.5 -17.9,-45.7 -10.2,-11.4 -24.5,-24 -39.2,-19.6 -7.9,2.4 -13.1,9.5 -17.5,16.3 -21.2,33.2 -36.1,69.5 -51.7,105.4 -82.7,190.3 -185.3,372.4 -305.8,543 -21,29.8 -43.1,60.4 -50.2,95.8 -1,5.1 -1.6,10.5 1,15.2 26.8,45.9 129.1,-119 136.8,-134.2 35.5,-70.5 61.2,-146.3 109,-210.6" /></g><g
         transform="scale(1.08106)"
         id="g86"><path
           id="path88"
           style="fill:#f57a73;fill-opacity:1;fill-rule:nonzero;stroke:none"
           d="m 15958.2,13041.1 341.8,-578.1 -228.8,-111.4 -284.9,556.8 171.9,132.7" /></g><g
         transform="scale(1.15162)"
         id="g90"><path
           id="path92"
           style="fill:#ebc8bf;fill-opacity:1;fill-rule:nonzero;stroke:none"
           d="m 15600.5,10809 c 18.9,0 38,1.6 57,5 117.9,21.1 213.7,105.1 249.9,219.3 0.7,2.3 358.1,1174.5 358.1,1174.5 34.5,113.1 -29.2,232.8 -142.3,267.2 -113.1,34.5 -232.6,-29.2 -267.2,-142.3 l -280.5,-919.9 -159.6,305.2 c -54.7,104.8 -184,145.4 -288.8,90.6 -104.8,-54.8 -145.3,-184.1 -90.5,-288.9 l 289.8,-554.4 c 5.9,-11.3 12.9,-22.1 20.8,-32.2 61.6,-79.3 155.2,-124.1 253.3,-124.1" /></g><g
         transform="scale(1.19101)"
         id="g94"><path
           id="path96"
           style="fill:#b7d1ed;fill-opacity:1;fill-rule:nonzero;stroke:none"
           d="m 15145.4,7285.65 95.8,1657.16 c 1.5,34.34 7.2,71.46 16.5,105.96 60.9,224.94 269.3,366.08 486.8,343.41 55.3,5.79 112.7,1.34 169.5,-15.12 243.8,-70.44 386,-331.73 317.8,-583.53 L 15892.7,7296.4 c -46.3,-204.62 -52,-416.87 -16.5,-623.84 l 266,-1278.74 c 17,-158.1 -76.3,-272.04 -203.3,-259.87 -11.9,0 -71.8,-1.93 -91.5,0 -90.8,0 -171.1,60.88 -198.3,150.3 l -435.7,1430.54 c -56.1,184.47 -79.2,377.92 -68,570.86" /></g><g
         transform="scale(1.20375)"
         id="g98"><path
           id="path100"
           style="fill:#b7d1ed;fill-opacity:1;fill-rule:nonzero;stroke:none"
           d="m 15609,7362.17 c 20.1,106.17 49.6,209.51 81.8,311.36 100,316.1 227.3,619.98 379.3,905.5 23.5,44.28 51,91.14 93.1,106.67 136.8,50.18 60,-148.04 40.3,-205.69 -41.9,-122.86 -111.2,-229.95 -148.2,-355.47 -24.1,-82 -33.8,-169.72 -63.4,-249.06 -42.8,-114.72 -124.7,-204.36 -165.3,-320.25 -41.4,-118.46 -35.7,-252.54 -64.7,-376.16 -16.7,-71.02 -44.7,-138.73 -52.1,-212 -14,-141.72 51.2,-275.14 84,-412.38 28.3,-118.13 32.7,-242.16 48,-363.61 42.2,-334.46 167.6,-575.79 130.5,-911.07 -95.3,356.13 -218.9,615.16 -303.6,975.03 -84.6,359.8 -128.7,742.6 -59.7,1107.13" /></g><g
         transform="scale(1.25856)"
         id="g102"><path
           id="path104"
           style="fill:#b7d1ed;fill-opacity:1;fill-rule:nonzero;stroke:none"
           d="m 16002.9,8595.31 c -17.7,-786.06 56.6,-2258.85 273.1,-3446.72 24,-131.82 -72.5,-257.12 -211.2,-273.88 -119.5,-14.39 -231,57.52 -261.6,169 -372.8,1358.38 -649.3,2633.96 -835.8,3402.7 -1.9,7.47 -1.8,15.1 -2.6,27.49 l -7.3,89.31 929.9,149.85 108.4,11.21 6.6,-102.02 c 0.1,-7.47 0.4,-19.55 0.5,-26.94" /></g><g
         transform="scale(1.25863)"
         id="g106"><path
           id="path108"
           style="fill:#b7d1ed;fill-opacity:1;fill-rule:nonzero;stroke:none"
           d="m 16075.8,8057.91 c -8.4,-107.81 -38.6,-213.72 -40.5,-321.78 -3,-163.74 59.2,-322.09 60.1,-485.76 0.7,-143.25 -45.7,-286.74 -25,-428.25 13.9,-95.18 57.7,-184.41 64.7,-280.38 5.9,-79.69 -13.8,-160.26 -4.8,-239.63 8.9,-77.46 44.6,-148.89 62,-224.77 29,-126.01 7,-259.25 26.7,-387.17 11,-71.19 34.8,-139.43 50.2,-209.67 30.8,-140.55 27.3,-288.96 -10,-428.64 -17.5,462.17 -165.4,905.91 -282,1352.03 -53.1,202.84 -100.1,410.05 -96.6,620.44 3.5,205.46 55.1,407.74 70.7,612.81 12.5,165.26 1.6,331.15 -11.5,496.09 -10.4,128.56 -34.6,466.71 57.2,573.17 79.7,-116.16 89.7,-508.25 78.8,-648.49" /></g><g
         transform="scale(1.18237)"
         id="g110"><path
           id="path112"
           style="fill:#655bb3;fill-opacity:1;fill-rule:nonzero;stroke:none"
           d="m 16300,7389.79 c -6.6,46.18 -13.9,92.19 -21.5,138.2 -1.9,11.42 -3.5,23 -6.2,34.34 -2.8,11.25 -5.5,22.58 -8.1,33.91 l -15.5,67.91 -62.4,271.91 -124.6,543.66 c -0.6,2.87 -2.4,5.33 -4.6,6.85 -6.7,4.48 -12.9,9.22 -19.7,13.28 l -20.6,11.92 -41.1,23.77 c -27.3,15.81 -54.8,31.63 -82.4,47.02 24.8,-19.7 49.8,-39.07 74.9,-58.27 l 37.6,-28.93 18.9,-14.37 c 6.3,-4.74 13.2,-8.8 19.7,-13.11 l -4.6,6.85 124.5,-543.74 62.4,-271.82 15.5,-68 c 2.7,-11.25 5.2,-22.67 7.6,-34 2.4,-11.42 6.1,-22.5 9.3,-33.66 13.2,-44.66 26.7,-89.23 40.9,-133.72" /></g><g
         transform="scale(1.28734)"
         id="g114"><path
           id="path116"
           style="fill:#f57a73;fill-opacity:1;fill-rule:nonzero;stroke:none"
           d="m 16117,8152.56 -30.6,563.18 213.6,-5.75 -3.4,-525.11 -179.6,-32.32" /></g><g
         transform="scale(1.27482)"
         id="g118"><path
           id="path120"
           style="fill:#f57a73;fill-opacity:1;fill-rule:nonzero;stroke:none"
           d="m 16218,8058.65 c 14.8,-4.7 30.7,3.61 35.3,18.36 l 42.1,133.19 c 4.6,14.75 -3.6,30.68 -18.4,35.3 -14.7,4.63 -30.7,-3.61 -35.3,-18.35 l -42,-133.2 c -4.7,-14.82 3.6,-30.67 18.3,-35.3" /></g><g
         transform="scale(1.29221)"
         id="g122"><path
           id="path124"
           style="fill:#f57a73;fill-opacity:1;fill-rule:nonzero;stroke:none"
           d="m 16295.4,8002.97 c -2.2,-23.84 -6.8,-47.83 -18.8,-63.08 -9.3,-11.91 -22.2,-17.48 -34.9,-21.97 -33,-11.61 -67.7,-17.96 -103.1,-18.81 -32.5,-0.85 -71.4,7.05 -93.7,46.05 -21.6,37.76 -23.3,83.65 -13.3,122.19 19,73.21 26.4,99.13 72.6,140.69 57.8,52 118.6,49.37 153.2,-52.31 17.7,-52.32 42.6,-100.99 38,-152.76" /></g><g
         transform="scale(1.28149)"
         id="g126"><path
           id="path128"
           style="fill:#f57a73;fill-opacity:1;fill-rule:nonzero;stroke:none"
           d="m 16224.5,8029.71 70.7,-198.75 c 4.8,-13.5 -2.3,-28.41 -15.8,-33.17 -13.4,-4.83 -28.4,2.27 -33.2,15.77 l -70.7,198.75 c -4.7,13.42 2.4,28.4 15.8,33.16 13.5,4.76 28.4,-2.34 33.2,-15.76" /></g><g
         transform="scale(1.28726)"
         id="g130"><path
           id="path132"
           style="fill:#f57a73;fill-opacity:1;fill-rule:nonzero;stroke:none"
           d="m 16224.8,7997.47 70.5,-197.86 c 4.7,-13.37 -2.4,-28.28 -15.8,-33.02 -13.4,-4.74 -28.3,2.33 -33,15.69 l -70.4,197.86 c -4.7,13.44 2.3,28.28 15.7,33.1 13.4,4.73 28.3,-2.33 33,-15.77" /></g><g
         transform="scale(1.29054)"
         id="g134"><path
           id="path136"
           style="fill:#f57a73;fill-opacity:1;fill-rule:nonzero;stroke:none"
           d="m 16225.1,8005.87 70.2,-197.36 c 4.7,-13.4 -2.4,-28.2 -15.7,-33 -13.4,-4.73 -28.2,2.32 -33,15.73 l -70.2,197.36 c -4.7,13.32 2.3,28.12 15.7,32.93 13.4,4.72 28.2,-2.33 33,-15.66" /></g><g
         transform="scale(1.29531)"
         id="g138"><path
           id="path140"
           style="fill:#f57a73;fill-opacity:1;fill-rule:nonzero;stroke:none"
           d="m 16245.3,8061.22 41.9,-128.93 c 12.8,-39.45 8.4,-82.6 -12.6,-118.35 -15.1,-25.78 -32,-47.25 -38.9,-49.64 l -18.9,15.13 c -13.4,-4.78 -34.9,26.33 -39.6,39.61 l 0.4,234.07 c -4.7,13.28 2.4,28.1 15.6,32.81 13.4,4.71 47.4,-11.35 52.1,-24.7" /></g><g
         transform="scale(1.29274)"
         id="g142"><path
           id="path144"
           style="fill:#ebc8bf;fill-opacity:1;fill-rule:nonzero;stroke:none"
           d="m 15938.8,10864 c 43.4,-75.9 49.1,-167.4 87.7,-245.6 40.7,-82.4 115.9,-146.5 149.1,-232 25.6,-66 23.8,-139 39,-208.1 12.3,-56.1 35.7,-109.2 50.3,-164.6 20.9,-79.31 23.5,-162.08 26.1,-244.16 3,-94.29 6,-188.59 9,-282.88 -45,483.31 -274.5,928.14 -521.1,1348.34 -23,39.2 -169.8,251.4 -60,247.3 71.7,-2.7 189.2,-164.4 219.9,-218.3" /></g><g
         transform="scale(1.29926)"
         id="g146"><path
           id="path148"
           style="fill:#ebc8bf;fill-opacity:1;fill-rule:nonzero;stroke:none"
           d="m 16105.4,8335.3 c -112.6,-25.63 -220.5,58.42 -223.7,174.1 -2.6,90.36 -4.5,175.64 -5.4,191.42 -16.5,279 -61.3,654.91 -105.8,901.05 -40.4,239.29 -557.2,1061.33 -627.9,1168.63 -108.5,241.9 390,476 538,235.6 607.2,-986.2 619.4,-1743.12 566.9,-2504.48 -5.5,-80.81 -63.3,-148.46 -142.1,-166.32 v 0" /></g><g
         transform="scale(1.24967)"
         id="g150"><path
           id="path152"
           style="fill:#ebc8bf;fill-opacity:1;fill-rule:nonzero;stroke:none"
           d="m 14504.7,8712.99 c -30.9,431.47 61.1,1661.81 90.4,2283.91 14.2,103.6 -11.8,307.9 69.7,473 9.5,19.2 22.4,36.8 37.5,52.4 112,115.2 634.4,583.6 1347.7,124.8 47.9,-30.8 169,-110.9 201.3,-157.7 48.7,-70.5 -99.7,-760.8 -116.1,-880.4 -51.1,-370.4 -9.5,-662.01 0.8,-996.34 3.7,-176.61 89.3,-568.39 105.2,-753.31 -5.6,-60.1 19,-158.85 -13.8,-197.17 h -1667.5 c -29.5,0 -53.1,21.6 -55.2,50.81" /></g><g
         transform="scale(1.24594)"
         id="g154"><path
           id="path156"
           style="fill:#ebc8bf;fill-opacity:1;fill-rule:nonzero;stroke:none"
           d="m 16094.9,8595.05 c -92.4,-5.3 -199,12.44 -306.9,37.56 -68.7,15.89 -140.1,35.07 -198.5,31.14 -62.5,-4.17 -105.8,-34.59 -172.7,-31.7 -63.6,2.81 -141.6,35.55 -203.9,36.2 -49.6,0.47 -85.3,-19.59 -136.6,-16.46 -29.3,1.77 -62.2,11.08 -93.5,17.09 -154.4,29.62 -245.6,-19.98 -405.2,25.45 112.5,-0.88 171.8,38.12 236,92.22 67.5,56.82 115.6,130.26 194.6,176.89 79,46.63 199.5,62.93 337.6,3.69 73.1,-31.38 144,-80.74 216.7,-119.34 106.5,-56.51 217,-89.17 309.8,-91.42 91,-2.25 168.2,23.36 271.2,-6.66 20.9,-6.1 42.3,-14.53 63.3,-21.03 15.5,-4.82 47.8,-6.1 61.1,-13 32.1,-16.62 20.8,-38.29 10.4,-52.57 -33.5,-45.67 -110.8,-63.89 -183.4,-68.06" /></g><g
         transform="scale(1.11943)"
         id="g158"><path
           id="path160"
           style="fill:#ebc8bf;fill-opacity:1;fill-rule:nonzero;stroke:none"
           d="m 16299,12370.9 c -31.8,-211.3 1,-217.3 -30.4,-550.7 -10.1,-105.8 -27,-287 -40,-390.9 -17.1,-138.1 40.2,-270.1 37.5,-408.2 -1.4,-74.5 -20.2,-148.6 -31.4,-222.8 -11.6,-77.7 -14.9,-155.6 -18.2,-233.4 -5.8,-136 -11.6,-272.2 -17.4,-408.2 -6.8,-160.18 -17.6,-283.19 0.9,-440.59 l 99,2654.79" /></g><g
         transform="scale(1.20126)"
         id="g162"><path
           id="path164"
           style="fill:#f57a73;fill-opacity:1;fill-rule:nonzero;stroke:none"
           d="m 15916.6,12886.3 c 7.7,41.7 42.3,70.6 76.7,64.2 l 250.5,-46.7 c 34.4,-6.5 56.2,-45.9 48.5,-87.6 l -105.3,-563.5 c -19.4,-103.9 -119.6,-172.4 -223.5,-152.6 -103.4,19.7 -171.4,119.3 -152.1,222.7 l 105.2,563.5" /></g><g
         transform="scale(1.22934)"
         id="g166"><path
           id="path168"
           style="fill:#171e3c;fill-opacity:1;fill-rule:nonzero;stroke:none"
           d="m 16278.3,13038.8 c -15,33 -37.3,63.9 -42.2,99.6 -4.2,30.5 4.8,61.2 3.1,92 -1.7,30.7 -20.5,65.4 -52.1,68 -15,1.2 -29.8,-5.1 -44.7,-3.9 -42.1,3.6 -54.4,56.2 -75.1,92.1 -23.2,40.3 -70.1,66.6 -117.4,66 -34,-0.5 -72.2,-12.7 -99.2,7.7 -21.3,16 -27.8,48.2 -52.8,57.9 -36.6,14.3 -68.9,-32.4 -108.1,-35.1 -27.6,-1.9 -51.1,18.1 -76.1,30 -46.5,22.1 -106.1,14.6 -144.6,-18.3 -20.6,-17.5 -36.1,-41.9 -61.5,-52.1 -32.9,-13.1 -74,0.9 -104.2,-17 -62.7,-37.4 -14.4,-108.4 -16.5,-174 -2.5,-82.6 -90.7,-160 -53.5,-234.8 8.7,-17.5 24.3,-33.5 23.4,-52.9 -1,-19.6 -18.9,-34.9 -22,-54.4 -5.8,-36.4 39.7,-63.4 53.9,-96 0.5,-3.5 4.7,-22.5 4.1,-25.3 41.3,-215 181.4,-380.6 360,-396.7 148.1,-13.3 268.8,134.7 373.9,228.3 1.9,0.1 3.6,-0.4 5.7,-0.2 48.5,3.6 86.2,29.8 117.5,65.1 57.5,64.8 20.4,139.4 60.5,200.2 15.4,23.2 47.6,30.5 65.9,51.7 23.7,27.3 17,69.1 2,102.1" /></g><g
         transform="scale(1.20362)"
         id="g170"><path
           id="path172"
           style="fill:#f57a73;fill-opacity:1;fill-rule:nonzero;stroke:none"
           d="m 15870.9,13459.3 c -56.8,27.4 -122.8,18.7 -174.5,-17.5 -17.2,-12 -28.1,-32.6 -32.7,-81.5 l -32.2,-336 c -8.5,-88.7 1.3,-178.7 32.6,-262.1 46,-122.8 121.8,-192.3 249.7,-204.4 177.8,-16.8 336.8,112.5 355.5,311.6 l 22.1,230.6 c 8.6,90.2 -39.9,176.2 -121.5,215.4 l -299,143.9" /></g><g
         transform="scale(1.18354)"
         id="g174"><path
           id="path176"
           style="fill:#171e3c;fill-opacity:1;fill-rule:nonzero;stroke:none"
           d="m 16249.6,13296.1 c -2.1,-20.6 7.1,-38.3 20.5,-39.6 13.3,-1.4 25.8,14.2 27.9,34.8 2,20.6 -7.2,38.3 -20.6,39.7 -13.3,1.3 -25.8,-14.3 -27.8,-34.9" /></g><g
         transform="scale(1.16062)"
         id="g178"><path
           id="path180"
           style="fill:#171e3c;fill-opacity:1;fill-rule:nonzero;stroke:none"
           d="m 16248.6,13590.6 c -2.1,-20.9 7.3,-39 20.9,-40.4 13.6,-1.4 26.4,14.6 28.4,35.5 2.1,21 -7.2,39.1 -20.9,40.5 -13.6,1.3 -26.4,-14.6 -28.4,-35.6" /></g><g
         transform="scale(1.21093)"
         id="g182"><path
           id="path184"
           style="fill:#f57a73;fill-opacity:1;fill-rule:nonzero;stroke:none"
           d="m 16203.1,12918.9 c 56.4,-5.4 96.9,-64.8 90.5,-132.7 -6.4,-67.9 -57.3,-118.7 -113.7,-113.4 -56.4,5.4 -96.9,64.7 -90.5,132.7 6.4,67.9 57.3,118.7 113.7,113.4" /></g><g
         transform="scale(1.16965)"
         id="g186"><path
           id="path188"
           style="fill:#e65552;fill-opacity:1;fill-rule:nonzero;stroke:none"
           d="m 16300,13457.5 c -14.8,-14.7 -26.6,-30.8 -37.4,-47.3 -10.6,-16.6 -20.1,-33.8 -28.4,-51.5 -4.2,-8.8 -8.2,-17.8 -11.9,-26.9 l -2.7,-6.8 c -1.5,-3.4 -2.9,-8.8 -2.7,-13.2 0.1,-9.3 4.4,-18.3 12,-23.9 3.6,-2.9 8.9,-4.5 10.5,-4.7 l 7.3,-1.6 c 4.7,-1.1 9.6,-2 14.6,-2.9 10,-1.4 19.9,-3 30.3,-3.2 -7.6,7.2 -15.9,13 -24.1,18.8 -4.1,2.8 -8.3,5.5 -12.5,8.1 -3.6,2.4 -10.6,5.9 -8.8,6 1.8,3.1 5.4,9.5 5.4,9.5 4.7,8.6 9.2,17.4 13.3,26.2 8.5,17.7 15.8,35.8 21.9,54.6 6,18.8 11.1,38.1 13.2,58.8" /></g><g
         transform="scale(1.19954)"
         id="g190"><path
           id="path192"
           style="fill:#e65552;fill-opacity:1;fill-rule:nonzero;stroke:none"
           d="m 15862.8,12630.8 c 15.8,-14.2 33.9,-26 54.4,-34.7 21.7,-5.6 44.4,-5.3 65.5,-3.3 42.8,4.4 83.5,16.8 122.7,32.6 39,16.1 76.4,36.6 110.7,61.3 l 25.1,19.4 c 7.9,7 16.1,13.7 23.9,20.9 6.3,8.7 12.7,17.2 18.7,25.9 5.7,9.2 11,18.3 16.2,27.5 -8.5,-6.5 -16.8,-12.9 -24.8,-19.3 l -25.2,-17.9 -22.9,-19.9 -24.1,-18.5 c -32.8,-23.8 -68.6,-43.4 -106.1,-58.8 -37.4,-15.2 -76.7,-27.1 -116.4,-31.1 -19.9,-1.8 -39.2,-2.3 -57.8,3 -19.6,1.5 -39.6,6.8 -59.9,12.9" /></g><g
         transform="scale(1.18958)"
         id="g194"><path
           id="path196"
           style="fill:#171e3c;fill-opacity:1;fill-rule:nonzero;stroke:none"
           d="m 16287.4,13297.3 c 3.2,0 6.4,1.4 8.6,4 4,4.8 3.3,11.8 -1.4,15.8 -3.4,2.9 -85.5,70.4 -170.3,31.2 -5.6,-2.6 -8.1,-9.2 -5.5,-14.8 2.6,-5.7 9.3,-8.1 14.9,-5.5 72.1,33.3 145.8,-27.4 146.5,-28.1 2.1,-1.7 4.7,-2.6 7.2,-2.6" /></g><g
         transform="scale(1.17707)"
         id="g198"><path
           id="path200"
           style="fill:#ffffff;fill-opacity:1;fill-rule:nonzero;stroke:none"
           d="m 16212.7,13069.9 c 26.3,0 54.8,6.3 81.1,25.1 5,3.6 6.2,10.7 2.6,15.8 -3.6,5.1 -10.7,6.2 -15.8,2.6 -38.9,-27.8 -84.5,-22.7 -115.9,-13.6 -6,1.8 -12.3,-1.7 -14.1,-7.7 -1.7,-6 1.7,-12.3 7.8,-14 15.6,-4.6 34.3,-8.2 54.3,-8.2" /></g><g
         transform="scale(1.16389)"
         id="g202"><path
           id="path204"
           style="fill:#171e3c;fill-opacity:1;fill-rule:nonzero;stroke:none"
           d="m 16287,13628.4 c 3.5,0 6.9,1.5 9.1,4.4 3.9,5 3,12.2 -2,16 -2.3,1.8 -57.3,43.9 -122.7,39.7 -6.4,-0.4 -11.2,-5.9 -10.8,-12.2 0.5,-6.3 5.8,-11.1 12.2,-10.7 56.6,3.8 106.7,-34.5 107.3,-34.9 2,-1.6 4.5,-2.3 6.9,-2.3" /></g><g
         transform="scale(1.06394)"
         id="g206"><path
           id="path208"
           style="fill:#f57a73;fill-opacity:1;fill-rule:nonzero;stroke:none"
           d="m 15905,13032.6 c -27.8,17.3 -54.2,37.4 -65.5,61.5 -8.8,18.6 -7.7,37.7 -5.3,56.1 6,47.3 19.5,93.3 40.2,137.1 18.9,40.1 23.3,79.2 84.6,82.5 59.2,3.2 135.7,-17.7 218,-54.4 94.1,-41.9 72.7,-93.8 95,-175.5 28,-102.4 -12.6,-174.8 -157.6,-154.5 -74.7,10.3 -149.3,9.8 -209.4,47.2" /></g><g
         transform="scale(1.05304)"
         id="g210"><path
           id="path212"
           style="fill:#e65552;fill-opacity:1;fill-rule:nonzero;stroke:none"
           d="m 16159.7,13135.2 c 6.3,0 12.6,0.4 18.9,1.2 6.6,1 13.5,2.4 19.9,6.6 9,5.9 13.8,16 12.2,25.6 -0.5,3.3 -1.7,6.4 -3.7,9.5 2.6,0.3 5.1,0.7 7.5,1.1 19.4,3.8 41.9,16.2 47.1,39.6 3.7,16.5 -3.2,35.3 -17.5,48.5 6.3,0.6 13,2 19.4,4.6 12.9,5.3 22.5,15.6 25.8,27.4 3.9,14.2 -1.3,29.6 -13.9,43 8.6,3 14,8.2 17.3,13.2 6.8,10.3 7.3,24.6 1.2,38.9 -7.3,17.3 -20.1,29.9 -33.8,42.5 -15.9,14.5 -45.4,23.4 -76.5,32.8 -24.2,7.3 -49.3,14.8 -60.8,23.7 -5.6,4.2 -13.5,3.2 -17.8,-2.3 -4.2,-5.6 -3.2,-13.5 2.3,-17.8 15.3,-11.6 41.3,-19.5 69,-27.8 25.8,-7.9 55,-16.6 66.7,-27.2 11.5,-10.7 22.3,-21.1 27.6,-33.7 2.6,-6.2 3,-12.1 0.9,-15.2 -3,-4.7 -12.7,-5.7 -26.6,-2.8 -2.9,0.7 -5.9,1.3 -8.8,2 -13.3,6 -27.5,10.1 -42,12.1 l -5.9,-24.5 c 12.9,-4.4 26.2,-8.4 39.6,-11.6 7.2,-3.5 14.1,-7.4 20.5,-12.1 9.3,-6.6 19,-17.6 16.6,-26.6 -1.2,-4.3 -5.4,-8.3 -11.1,-10.6 -6.6,-2.8 -14.9,-3.2 -22.1,-3.2 -21.5,0 -43.5,2.9 -64.4,9.3 l -7.7,-24.1 31.8,-11 c 12.2,-4.4 25,-8.8 34.3,-16.6 7.1,-6 13.3,-16.1 11.2,-25.4 -2.3,-10.8 -15.3,-17.9 -27.2,-20.2 -8,-1.6 -16.4,-1.8 -25.4,-2.1 -7.8,-0.2 -16,-0.4 -24.3,-1.6 l 2.3,-25.2 c 8.2,0.3 16.3,-3 21.9,-8.9 -1.8,-3.6 -5.5,-4.3 -9.1,-4.8 -20.9,-3 -44.8,0.3 -75.2,10.1 -6.7,2.2 -13.8,-1.5 -15.9,-8 -2.2,-6.7 1.5,-13.8 8.1,-16 17.3,-5.7 41.8,-12.4 67.6,-12.4" /></g><g
         transform="scale(1.06258)"
         id="g214"><path
           id="path216"
           style="fill:#f57a73;fill-opacity:1;fill-rule:nonzero;stroke:none"
           d="m 16050.1,13262.4 c 10.4,17.6 20.6,35.2 30.9,52.8 6.7,11.3 14.4,23.5 26.9,27.3 6.9,2 14.3,1.2 21.5,0.2 20.8,-3 41.5,-7.1 61.9,-12.3 11,-2.8 22.1,-6.1 31.6,-12.5 15.9,-10.7 25,-29 32.6,-46.6 13,-30.1 21.4,-61.7 34,-91.8 10.5,-25.8 -1,-48.6 -30.7,-50.7 -14.4,-1 -28.8,1.4 -42.3,6.4 -21.6,8.1 -40.7,23.4 -52.6,43.2 -6.2,10.5 -10.6,22 -17.9,31.7 -7.3,9.7 -18.6,17.6 -30.6,16.4 -6.6,-0.6 -12.7,-3.9 -18.9,-6.6 -10.6,-4.4 -22.7,-6.6 -33.8,-3.3 -11.1,3.4 -20.5,13.7 -20.3,25.3 0.2,7.3 4.1,14.1 7.7,20.5" /></g><g
         transform="scale(1.0627)"
         id="g218"><path
           id="path220"
           style="fill:#e65552;fill-opacity:1;fill-rule:nonzero;stroke:none"
           d="m 16207.4,13124.1 c 4.7,0 9.3,2.8 11.4,7.4 2.9,6.3 0.2,13.7 -6.1,16.6 -16.8,7.7 -31,20.3 -39.9,35.2 -2.3,3.9 -4.3,7.8 -6.2,11.7 -3.6,7 -7.3,14.3 -12.5,21.1 -11.1,14.8 -26.7,22.9 -41.8,21.3 -7.3,-0.6 -13.3,-3.4 -18.8,-5.8 l -3.6,-1.6 c -6.8,-2.7 -16.6,-5.6 -25.3,-2.8 -6.4,1.8 -11.5,7.7 -11.4,12.9 0.1,4.3 3.2,9.6 6,14.4 l 30.8,52.8 c 5.9,10 11.8,19.2 19.6,21.6 4.4,1.3 10.1,0.6 16.1,-0.2 20.4,-2.8 40.7,-6.9 60.6,-12 9.7,-2.5 19.8,-5.3 27.7,-10.7 13.5,-9.1 21.5,-26 28.1,-41.2 6.3,-14.7 11.3,-33.2 16.1,-51.2 4.7,-17.6 9.6,-35.7 16,-51.1 2.7,-6.4 9.9,-9.5 16.4,-6.9 6.4,2.7 9.4,10 6.8,16.4 -5.8,13.9 -10.4,31.4 -14.9,48.1 -5.1,18.8 -10.4,38.3 -17.3,54.7 -8,18.3 -18.1,39.1 -37.2,52 -11.2,7.5 -23.6,11.1 -35.5,14.2 -20.8,5.4 -42,9.5 -63.3,12.5 -8.5,1.3 -17.5,2.2 -26.7,-0.5 -16.7,-5.1 -26,-19.1 -34.2,-33.1 l -30.8,-52.7 c -3.9,-6.7 -9.2,-15.8 -9.4,-26.6 -0.3,-16.4 11.8,-32.2 29,-37.4 12.6,-4 27.2,-2.7 42.4,3.6 l 4.2,1.9 c 4.1,1.8 7.8,3.5 11,3.8 7.5,0.6 14.9,-5.5 19.4,-11.5 3.9,-5.1 6.9,-11 10.1,-17.4 2.2,-4.4 4.5,-8.8 7,-13.1 11.6,-19.3 29.7,-35.4 50.9,-45.2 1.7,-0.8 3.5,-1.2 5.3,-1.2" /></g><g
         transform="scale(1.28375)"
         id="g222"><path
           id="path224"
           style="fill:#fbdedb;fill-opacity:1;fill-rule:nonzero;stroke:none"
           d="m 16300,8436 c -51.2,-9.51 -104.8,3.58 -144.8,34.27 -40.4,30.38 -66,77.74 -69.9,126.58 -0.3,6.24 -0.9,12.08 -1.2,18.54 l -0.7,19.48 -1.2,38.95 -2.2,77.89 c -0.8,51.96 -4.6,103.84 -8.4,155.64 -16,207.21 -39.3,413.71 -69.2,619.36 -7.4,51.41 -15.6,102.75 -24.3,154 l -6.7,38.33 -8.7,38.79 c -3,12.93 -7.6,25.24 -11.3,37.86 l -6,18.77 -6.8,18.39 c -36.7,98.07 -82.9,191.55 -131.1,283.65 -48.6,92 -100,182.3 -152.8,271.7 -55.9,87.7 -112.5,174.8 -171.4,260.3 51.8,-90 103.9,-179.8 153.6,-270.8 52.6,-89.2 103.9,-179.4 152.2,-270.9 48,-91.7 94,-184.69 130,-281.12 l 6.8,-18.07 5.7,-18.23 c 3.6,-12.31 8.1,-24.38 11,-36.77 l 8.3,-37.16 6.7,-38.24 c 8.7,-51.1 16.9,-102.2 24.3,-153.54 29.7,-205.1 53,-411.29 69,-617.88 3.9,-51.64 7.6,-103.29 8.3,-155.09 l 2.2,-77.66 1,-38.87 0.4,-19.4 c 0.2,-6.54 1.1,-13.55 1.7,-20.33 7.7,-54.37 39.6,-103.84 84.2,-133.13 22.3,-14.8 47.5,-24.84 73.5,-29.21 26,-4.2 52.7,-2.72 77.8,3.9" /></g><g
         transform="scale(1.13397)"
         id="g226"><path
           id="path228"
           style="fill:#6aafe3;fill-opacity:1;fill-rule:nonzero;stroke:none"
           d="m 7747.91,16297.9 4563.89,-37.1 c 257,-2.1 463.6,-212.1 461.5,-469.1 l -84.5,-10389.07 c -2.1,-256.98 -212.1,-463.6 -469,-461.48 l -4563.99,37.13 c -256.97,2.03 -463.59,212.08 -461.49,469.06 l 84.53,10389.06 c 2.09,257 212.11,463.6 469.06,461.5" /></g><g
         transform="scale(1.1399)"
         id="g230"><path
           id="path232"
           style="fill:#dcecf9;fill-opacity:1;fill-rule:nonzero;stroke:none"
           d="m 7327.92,15753.2 -84.1,-10334.94 c -1.64,-207.3 165.6,-377.22 372.77,-378.98 l 4540.21,-36.93 c 1,0 2,0 3.1,0 99.2,0 192.7,38.25 263.6,107.9 71.5,70.45 111.4,164.49 112.2,264.93 l 84.1,10335.02 c 0.8,100.3 -37.5,195 -107.9,266.6 -70.4,71.6 -164.6,111.4 -264.9,112.3 l -4540.19,36.9 c -1.02,0 -2.03,0 -3.05,0 -205.83,0 -374.14,-166.6 -375.84,-372.8 z M 12155.4,4828.39 7615.18,4865.32 c -303.12,2.46 -547.79,251.16 -545.35,554.34 l 84.1,10334.94 c 2.49,301.7 248.7,545.4 549.77,545.4 1.53,0 3.06,0 4.53,0 l -0.68,-87 0.68,87 4540.17,-36.9 c 146.8,-1.2 284.5,-59.6 387.6,-164.3 102.9,-104.7 158.9,-243.2 157.8,-390.1 l -84.1,-10334.92 c -1.2,-146.85 -59.5,-284.49 -164.2,-387.48 -103.6,-101.95 -240.4,-157.91 -385.5,-157.91 -1.5,0 -3.1,0 -4.6,0" /></g><path
         id="path234"
         style="fill:#ffffff;fill-opacity:1;fill-rule:nonzero;stroke:none"
         d="m 8893.53,15353.7 h 3111.77 c 39,0 70.7,31.7 70.7,70.7 0,39 -31.7,70.6 -70.7,70.6 H 8893.53 c -39.01,0 -70.67,-31.6 -70.67,-70.6 0,-39 31.66,-70.7 70.67,-70.7" /><path
         id="path236"
         style="fill:#ffffff;fill-opacity:1;fill-rule:nonzero;stroke:none"
         d="m 12398.1,15353.7 h 1242.5 c 39,0 70.6,31.7 70.6,70.7 0,39 -31.6,70.6 -70.6,70.6 h -1242.5 c -39,0 -70.7,-31.6 -70.7,-70.6 0,-39 31.7,-70.7 70.7,-70.7" /><path
         id="path238"
         style="fill:#ffffff;fill-opacity:1;fill-rule:nonzero;stroke:none"
         d="m 8893.53,14963.3 h 1912.57 c 39,0 70.7,31.6 70.7,70.7 0,39 -31.7,70.6 -70.7,70.6 H 8893.53 c -39.01,0 -70.67,-31.6 -70.67,-70.6 0,-39.1 31.66,-70.7 70.67,-70.7" /><path
         id="path240"
         style="fill:#ffffff;fill-opacity:1;fill-rule:nonzero;stroke:none"
         d="m 11380.6,14963.3 h 2260 c 39,0 70.6,31.6 70.6,70.7 0,39 -31.6,70.6 -70.6,70.6 h -2260 c -39,0 -70.7,-31.6 -70.7,-70.6 0,-39.1 31.7,-70.7 70.7,-70.7" /><path
         id="path242"
         style="fill:#ffffff;fill-opacity:1;fill-rule:nonzero;stroke:none"
         d="m 8893.53,14612 h 2881.57 c 39,0 70.7,31.6 70.7,70.7 0,39 -31.7,70.6 -70.7,70.6 H 8893.53 c -39.01,0 -70.67,-31.6 -70.67,-70.6 0,-39.1 31.66,-70.7 70.67,-70.7" /><path
         id="path244"
         style="fill:#ffffff;fill-opacity:1;fill-rule:nonzero;stroke:none"
         d="m 12183.5,14612 h 1457.1 c 39,0 70.6,31.6 70.6,70.7 0,39 -31.6,70.6 -70.6,70.6 h -1457.1 c -39,0 -70.7,-31.6 -70.7,-70.6 0,-39.1 31.7,-70.7 70.7,-70.7" /><path
         id="path246"
         style="fill:#ffffff;fill-opacity:1;fill-rule:nonzero;stroke:none"
         d="m 8893.53,14283.5 h 2242.07 c 39,0 70.7,31.6 70.7,70.6 0,39.1 -31.7,70.7 -70.7,70.7 H 8893.53 c -39.01,0 -70.67,-31.6 -70.67,-70.7 0,-39 31.66,-70.6 70.67,-70.6" /><path
         id="path248"
         style="fill:#ffffff;fill-opacity:1;fill-rule:nonzero;stroke:none"
         d="m 11692.1,14283.5 h 1948.5 c 39,0 70.6,31.6 70.6,70.6 0,39.1 -31.6,70.7 -70.6,70.7 h -1948.5 c -39,0 -70.7,-31.6 -70.7,-70.7 0,-39 31.7,-70.6 70.7,-70.6" /><path
         id="path250"
         style="fill:#ffffff;fill-opacity:1;fill-rule:nonzero;stroke:none"
         d="m 9745.85,13893.1 h 1717.85 c 39,0 70.6,31.6 70.6,70.6 0,39.1 -31.6,70.7 -70.6,70.7 H 9745.85 c -39,0 -70.65,-31.6 -70.65,-70.7 0,-39 31.65,-70.6 70.65,-70.6" /><path
         id="path252"
         style="fill:#ffffff;fill-opacity:1;fill-rule:nonzero;stroke:none"
         d="m 12005.3,13893.1 h 1635.3 c 39,0 70.6,31.6 70.6,70.6 0,39.1 -31.6,70.7 -70.6,70.7 h -1635.3 c -39,0 -70.6,-31.6 -70.6,-70.7 0,-39 31.6,-70.6 70.6,-70.6" /><g
         transform="scale(1.08246)"
         id="g254"><path
           id="path256"
           style="fill:#fbd646;fill-opacity:1;fill-rule:nonzero;stroke:none"
           d="m 10835,16300 -54.3,-110 -121.5,-17.7 88,-85.7 -20.8,-120.9 108.6,57.1 108.7,-57.1 -20.8,120.9 87.8,85.7 -121.4,17.7 -54.3,110" /></g><g
         transform="scale(1.08246)"
         id="g258"><path
           id="path260"
           style="fill:#fbd646;fill-opacity:1;fill-rule:nonzero;stroke:none"
           d="m 10322.3,16300 -54.2,-110 -121.5,-17.7 87.8,-85.7 -20.7,-120.9 108.6,57.1 108.6,-57.1 -20.7,120.9 87.9,85.7 -121.5,17.7 -54.3,110" /></g><g
         transform="scale(1.08246)"
         id="g262"><path
           id="path264"
           style="fill:#fbd646;fill-opacity:1;fill-rule:nonzero;stroke:none"
           d="m 9809.66,16300 -54.32,-110 -121.39,-17.7 87.86,-85.7 -20.79,-120.9 108.64,57.1 108.64,-57.1 -20.78,120.9 87.95,85.7 -121.49,17.7 -54.32,110" /></g><g
         transform="scale(1.08246)"
         id="g266"><path
           id="path268"
           style="fill:#fbd646;fill-opacity:1;fill-rule:nonzero;stroke:none"
           d="m 9302.86,16300 -54.33,-110 -121.4,-17.7 87.88,-85.7 -20.75,-120.9 108.6,57.1 108.64,-57.1 -20.7,120.9 87.86,85.7 -121.48,17.7 -54.32,110" /></g><g
         transform="scale(1.08246)"
         id="g270"><path
           id="path272"
           style="fill:#fbd646;fill-opacity:1;fill-rule:nonzero;stroke:none"
           d="m 8796.1,16300 -54.31,-110 -121.44,-17.7 87.87,-85.7 -20.75,-120.9 108.63,57.1 108.63,-57.1 -20.75,120.9 87.87,85.7 -121.44,17.7 -54.31,110" /></g><g
         transform="scale(1.09004)"
         id="g274"><path
           id="path276"
           style="fill:#686aa5;fill-opacity:1;fill-rule:nonzero;stroke:none"
           d="m 11187.8,15541.3 c 0,-419 339.7,-758.7 758.8,-758.7 419,0 758.7,339.7 758.7,758.7 0,419 -339.7,758.7 -758.7,758.7 -419.1,0 -758.8,-339.7 -758.8,-758.7" /></g><path
         id="path278"
         style="fill:#ffffff;fill-opacity:1;fill-rule:nonzero;stroke:none"
         d="m 8893.53,10860.5 h 3111.77 c 39,0 70.7,31.6 70.7,70.6 0,39.1 -31.7,70.7 -70.7,70.7 H 8893.53 c -39.01,0 -70.67,-31.6 -70.67,-70.7 0,-39 31.66,-70.6 70.67,-70.6" /><path
         id="path280"
         style="fill:#ffffff;fill-opacity:1;fill-rule:nonzero;stroke:none"
         d="m 12398.1,10860.5 h 1242.5 c 39,0 70.6,31.6 70.6,70.6 0,39.1 -31.6,70.7 -70.6,70.7 h -1242.5 c -39,0 -70.7,-31.6 -70.7,-70.7 0,-39 31.7,-70.6 70.7,-70.6" /><path
         id="path282"
         style="fill:#ffffff;fill-opacity:1;fill-rule:nonzero;stroke:none"
         d="m 8893.53,10470.1 h 1912.57 c 39,0 70.7,31.6 70.7,70.6 0,39.1 -31.7,70.7 -70.7,70.7 H 8893.53 c -39.01,0 -70.67,-31.6 -70.67,-70.7 0,-39 31.66,-70.6 70.67,-70.6" /><path
         id="path284"
         style="fill:#ffffff;fill-opacity:1;fill-rule:nonzero;stroke:none"
         d="m 11380.6,10470.1 h 2260 c 39,0 70.6,31.6 70.6,70.6 0,39.1 -31.6,70.7 -70.6,70.7 h -2260 c -39,0 -70.7,-31.6 -70.7,-70.7 0,-39 31.7,-70.6 70.7,-70.6" /><path
         id="path286"
         style="fill:#ffffff;fill-opacity:1;fill-rule:nonzero;stroke:none"
         d="m 8893.53,10118.8 h 2881.57 c 39,0 70.7,31.6 70.7,70.6 0,39.1 -31.7,70.7 -70.7,70.7 H 8893.53 c -39.01,0 -70.67,-31.6 -70.67,-70.7 0,-39 31.66,-70.6 70.67,-70.6" /><path
         id="path288"
         style="fill:#ffffff;fill-opacity:1;fill-rule:nonzero;stroke:none"
         d="m 12183.5,10118.8 h 1457.1 c 39,0 70.6,31.6 70.6,70.6 0,39.1 -31.6,70.7 -70.6,70.7 h -1457.1 c -39,0 -70.7,-31.6 -70.7,-70.7 0,-39 31.7,-70.6 70.7,-70.6" /><path
         id="path290"
         style="fill:#ffffff;fill-opacity:1;fill-rule:nonzero;stroke:none"
         d="m 11692.1,9790.3 h 1948.5 c 39,0 70.6,31.6 70.6,70.6 0,39 -31.6,70.7 -70.6,70.7 h -1948.5 c -39,0 -70.7,-31.7 -70.7,-70.7 0,-39 31.7,-70.6 70.7,-70.6" /><path
         id="path292"
         style="fill:#fbd646;fill-opacity:1;fill-rule:nonzero;stroke:none"
         d="m 11728.5,13150.9 -58.8,-119.1 -131.5,-19.1 95.2,-92.7 -22.5,-131 117.6,61.9 117.6,-61.9 -22.5,131 95.1,92.7 -131.4,19.1 -58.8,119.1" /><path
         id="path294"
         style="fill:#fbd646;fill-opacity:1;fill-rule:nonzero;stroke:none"
         d="m 11173.5,13150.9 -58.7,-119.1 -131.5,-19.1 95.1,-92.7 -22.4,-131 117.5,61.9 117.6,-61.9 -22.4,131 95.1,92.7 -131.5,19.1 -58.8,119.1" /><path
         id="path296"
         style="fill:#fbd646;fill-opacity:1;fill-rule:nonzero;stroke:none"
         d="m 10618.6,13150.9 -58.8,-119.1 -131.4,-19.1 95.1,-92.7 -22.5,-131 117.6,61.9 117.6,-61.9 -22.5,131 95.2,92.7 -131.5,19.1 -58.8,119.1" /><path
         id="path298"
         style="fill:#686aa5;fill-opacity:1;fill-rule:nonzero;stroke:none"
         d="m 10070,13150.9 -58.8,-119.1 -131.41,-19.1 95.12,-92.7 -22.46,-131 117.55,61.9 117.6,-61.9 -22.4,131 95.1,92.7 -131.5,19.1 -58.8,119.1" /><path
         id="path300"
         style="fill:#686aa5;fill-opacity:1;fill-rule:nonzero;stroke:none"
         d="m 9521.46,13150.9 -58.79,-119.1 -131.46,-19.1 95.12,-92.7 -22.46,-131 117.59,61.9 117.58,-61.9 -22.46,131 95.12,92.7 -131.45,19.1 -58.79,119.1" /><path
         id="path302"
         style="fill:#686aa5;fill-opacity:1;fill-rule:nonzero;stroke:none"
         d="m 12195.2,12447.4 c 0,-456.7 370.3,-827 827.1,-827 456.7,0 827,370.3 827,827 0,456.8 -370.3,827.1 -827,827.1 -456.8,0 -827.1,-370.3 -827.1,-827.1" /><path
         id="path304"
         style="fill:#ffffff;fill-opacity:1;fill-rule:nonzero;stroke:none"
         d="m 8893.53,6757.6 h 1912.57 c 39,0 70.7,31.7 70.7,70.7 0,39 -31.7,70.7 -70.7,70.7 H 8893.53 c -39.01,0 -70.67,-31.7 -70.67,-70.7 0,-39 31.66,-70.7 70.67,-70.7" /><path
         id="path306"
         style="fill:#ffffff;fill-opacity:1;fill-rule:nonzero;stroke:none"
         d="m 11380.6,6757.6 h 2260 c 39,0 70.6,31.7 70.6,70.7 0,39 -31.6,70.7 -70.6,70.7 h -2260 c -39,0 -70.7,-31.7 -70.7,-70.7 0,-39 31.7,-70.7 70.7,-70.7" /><path
         id="path308"
         style="fill:#ffffff;fill-opacity:1;fill-rule:nonzero;stroke:none"
         d="m 8893.53,6406.4 h 2881.57 c 39,0 70.7,31.6 70.7,70.6 0,39.1 -31.7,70.7 -70.7,70.7 H 8893.53 c -39.01,0 -70.67,-31.6 -70.67,-70.7 0,-39 31.66,-70.6 70.67,-70.6" /><path
         id="path310"
         style="fill:#ffffff;fill-opacity:1;fill-rule:nonzero;stroke:none"
         d="m 12183.5,6406.4 h 1457.1 c 39,0 70.6,31.6 70.6,70.6 0,39.1 -31.6,70.7 -70.6,70.7 h -1457.1 c -39,0 -70.7,-31.6 -70.7,-70.7 0,-39 31.7,-70.6 70.7,-70.6" /><path
         id="path312"
         style="fill:#fbd646;fill-opacity:1;fill-rule:nonzero;stroke:none"
         d="m 11728.5,9048.1 -58.8,-119.1 -131.5,-19.1 95.2,-92.8 -22.5,-130.9 117.6,61.8 117.6,-61.8 -22.5,130.9 95.1,92.8 -131.4,19.1 -58.8,119.1" /><path
         id="path314"
         style="fill:#fbd646;fill-opacity:1;fill-rule:nonzero;stroke:none"
         d="m 11173.5,9048.1 -58.7,-119.1 -131.5,-19.1 95.1,-92.8 -22.4,-130.9 117.5,61.8 117.6,-61.8 -22.4,130.9 95.1,92.8 -131.5,19.1 -58.8,119.1" /><path
         id="path316"
         style="fill:#fbd646;fill-opacity:1;fill-rule:nonzero;stroke:none"
         d="m 10618.6,9048.1 -58.8,-119.1 -131.4,-19.1 95.1,-92.8 -22.5,-130.9 117.6,61.8 117.6,-61.8 -22.5,130.9 95.2,92.8 -131.5,19.1 -58.8,119.1" /><path
         id="path318"
         style="fill:#fbd646;fill-opacity:1;fill-rule:nonzero;stroke:none"
         d="m 10070,9048.1 -58.8,-119.1 -131.41,-19.1 95.12,-92.8 -22.46,-130.9 117.55,61.8 117.6,-61.8 -22.4,130.9 95.1,92.8 -131.5,19.1 -58.8,119.1" /><path
         id="path320"
         style="fill:#686aa5;fill-opacity:1;fill-rule:nonzero;stroke:none"
         d="m 9521.46,9048.1 -58.79,-119.1 -131.46,-19.1 95.12,-92.8 -22.46,-130.9 117.59,61.8 117.58,-61.8 -22.46,130.9 95.12,92.8 -131.45,19.1 -58.79,119.1" /><path
         id="path322"
         style="fill:#686aa5;fill-opacity:1;fill-rule:nonzero;stroke:none"
         d="m 12195.2,8344.6 c 0,-456.7 370.3,-827 827.1,-827 456.7,0 827,370.3 827,827 0,456.7 -370.3,827 -827,827 -456.8,0 -827.1,-370.3 -827.1,-827" /><path
         id="path324"
         style="fill:#f57a73;fill-opacity:1;fill-rule:nonzero;stroke:none"
         d="m 6639.53,12233.1 c -105.99,50.7 -232.95,5.8 -283.6,-100.1 l -370.11,-774.3 c -76.86,-160.8 -159.81,-347.6 -291.01,-462.6 l -929.33,-803.5 151.3,-127.9 984,644.1 c 199.77,146.9 361.87,342.7 468.8,566.4 l 370.11,774.3 c 50.65,106 5.8,233 -100.16,283.6" /><path
         id="path326"
         style="fill:#f57a73;fill-opacity:1;fill-rule:nonzero;stroke:none"
         d="m 4613.81,10026.9 c 8.13,-13.4 25.76,-17.7 39.16,-9.6 l 120.97,73.5 c 13.4,8.1 17.71,25.8 9.57,39.2 -8.14,13.4 -25.76,17.7 -39.16,9.5 l -120.98,-73.4 c -13.4,-8.2 -17.7,-25.8 -9.56,-39.2" /><path
         id="path328"
         style="fill:#f57a73;fill-opacity:1;fill-rule:nonzero;stroke:none"
         d="m 4931.49,9915.7 c -11.3,-21.8 -24.94,-42.8 -42.29,-52.7 -13.44,-7.6 -27.87,-7.9 -41.8,-7.2 -35.88,1.7 -71.24,9.2 -105.27,22.1 -31.22,11.9 -65.08,34.5 -71.14,80.3 -5.85,44.3 10.37,88.5 34.9,121.3 46.49,62.2 63.64,84 123.69,105.5 75.21,27 131.96,0.8 125.24,-109.3 -3.46,-56.6 1.28,-112.6 -23.33,-160" /><path
         id="path330"
         style="fill:#f57a73;fill-opacity:1;fill-rule:nonzero;stroke:none"
         d="m 4720.78,9957.7 -10.02,-214.6 c -0.67,-14.6 -13.13,-25.9 -27.67,-25.2 -14.55,0.7 -25.89,13.1 -25.2,27.7 l 10.01,214.6 c 0.67,14.5 13.12,25.9 27.67,25.2 14.54,-0.7 25.89,-13.1 25.21,-27.7" /><path
         id="path332"
         style="fill:#f57a73;fill-opacity:1;fill-rule:nonzero;stroke:none"
         d="m 4791.38,9933 -10.01,-214.6 c -0.68,-14.6 -13.13,-25.9 -27.67,-25.2 -14.54,0.6 -25.89,13.1 -25.21,27.6 l 10.01,214.7 c 0.67,14.5 13.13,25.8 27.67,25.2 14.54,-0.7 25.89,-13.2 25.21,-27.7" /><path
         id="path334"
         style="fill:#f57a73;fill-opacity:1;fill-rule:nonzero;stroke:none"
         d="m 4841.91,9944.1 -10.01,-214.6 c -0.68,-14.5 -13.14,-25.9 -27.68,-25.2 -14.54,0.7 -25.88,13.1 -25.2,27.7 l 10.01,214.6 c 0.68,14.5 13.13,25.9 27.67,25.2 14.54,-0.7 25.88,-13.1 25.21,-27.7" /><path
         id="path336"
         style="fill:#f57a73;fill-opacity:1;fill-rule:nonzero;stroke:none"
         d="m 4951.21,9993.8 -10.31,-139.2 c -3.16,-42.6 -24.19,-82 -58.12,-107.9 -24.42,-18.6 -48.91,-32.5 -56.43,-32.1 l -12.16,21.8 c -14.54,0.7 -22.95,38.7 -22.27,53.2 l 91.68,222.8 c 0.69,14.6 13.14,25.9 27.68,25.2 14.54,-0.7 40.6,-29.3 39.93,-43.8" /><path
         id="path338"
         style="fill:#fbd65d;fill-opacity:1;fill-rule:nonzero;stroke:none"
         d="m 6896.75,12927.2 c 179.48,-88 731.81,437.4 641.51,252.2 -137.17,-279.8 -717.12,-1241.8 -801.56,-1414.7 -68.65,-140.6 -233.24,-205.7 -379.49,-150 -147.38,56.1 -226.97,215.9 -182.84,367.3 49.89,171.2 218.68,530.6 360.71,852.1 94.45,213.8 161.81,191 361.67,93.1" /><path
         id="path340"
         style="fill:#f57a73;fill-opacity:1;fill-rule:nonzero;stroke:none"
         d="m 4356.39,5597.6 -299.77,-331.4 140.21,-151.4 368.72,303.5 -209.16,179.3" /><path
         id="path342"
         style="fill:#f57a73;fill-opacity:1;fill-rule:nonzero;stroke:none"
         d="m 7518.7,14764.5 c 59.55,37.2 133.63,35.7 195.27,2 20.54,-11.2 35.06,-32.6 46.17,-86.1 l 76.91,-367.9 c 20.31,-97.1 20.43,-197.9 -3.92,-294.1 -35.82,-141.5 -111.14,-227.8 -251.15,-256.8 -194.8,-40.4 -386.56,83.2 -431.79,301.2 l -52.69,252.4 c -20.62,98.8 22.5,199.9 108.01,253.4 l 313.19,195.9" /><path
         id="path344"
         style="fill:#f57a73;fill-opacity:1;fill-rule:nonzero;stroke:none"
         d="m 7550.82,14061.4 c -6.38,46.7 -43.16,80.6 -81.73,75.4 l -280.51,-38.3 c -38.58,-5.3 -64.9,-47.8 -58.53,-94.6 l 86.11,-631 c 15.9,-116.6 123.45,-198 239.89,-181.6 115.83,16.2 196.7,123.1 180.88,239 l -86.11,631.1" /><path
         id="path346"
         style="fill:#f57a73;fill-opacity:1;fill-rule:nonzero;stroke:none"
         d="m 8149.51,13409.5 c -109.95,41.4 -165.47,164.1 -124.07,274 l 302.49,803.2 c 62.84,166.7 140.19,355.9 132.33,530.2 l -63.62,1226.8 197.04,-20.6 216.5,-1155.9 c 32.31,-245.9 3.19,-498.5 -84.2,-730.5 l -302.49,-803.1 c -41.41,-109.9 -164.07,-165.5 -273.98,-124.1" /><path
         id="path348"
         style="fill:#f57a73;fill-opacity:1;fill-rule:nonzero;stroke:none"
         d="m 7248.88,5159.6 -53.89,-443.6 217.04,-29.9 111.14,447.6 -274.29,25.9" /><path
         id="path350"
         style="fill:#292651;fill-opacity:1;fill-rule:nonzero;stroke:none"
         d="m 7190.4,4552.3 c 0,-22.5 16.06,-40.7 35.87,-40.7 h 536.47 c 28.85,0 52.06,26.5 52.26,59.1 h -624.6 v -18.4" /><path
         id="path352"
         style="fill:#5bc284;fill-opacity:1;fill-rule:nonzero;stroke:none"
         d="m 7814.79,4592.2 c -0.41,27.2 -15.54,51.2 -38.02,60.5 l -122.96,47.2 c -44.17,-27.4 -140.71,-46.5 -252.78,-46.5 -84.17,0 -159.57,10.8 -210.63,27.7 V 4570.7 H 7815 c 0.12,0.1 -0.21,21.5 -0.21,21.5" /><path
         id="path354"
         style="fill:#f57a73;fill-opacity:1;fill-rule:nonzero;stroke:none"
         d="m 7653.81,4699.9 -245.35,92.7 c -35.1,-29.2 -24.29,-57.6 -73.42,-57.6 h -118.2 c -14.61,0 -26.44,-13.4 -26.44,-30 v -23.9 c 51.06,-16.9 126.46,-27.7 210.63,-27.7 112.07,0 208.61,19.1 252.78,46.5" /><path
         id="path356"
         style="fill:#292651;fill-opacity:1;fill-rule:nonzero;stroke:none"
         d="m 4014.12,5384 c -22.1,4.3 -43.06,-8 -46.81,-27.5 l -101.64,-526.7 c -5.46,-28.3 16.18,-56.2 48.15,-62.5 l 118.33,613.3 -18.03,3.4" /><path
         id="path358"
         style="fill:#5bc284;fill-opacity:1;fill-rule:nonzero;stroke:none"
         d="m 3935,4763.4 c 26.75,-4.7 53.23,5.5 66.58,25.9 l 69.63,111.8 c -18.56,48.5 -18.96,146.9 2.27,257 15.95,82.6 40.78,154.6 67.11,201.5 l -108.44,21 -118.33,-613.3 c 0.11,-0.2 21.18,-3.9 21.18,-3.9" /><path
         id="path360"
         style="fill:#f57a73;fill-opacity:1;fill-rule:nonzero;stroke:none"
         d="m 4071.21,4901.1 137.52,223.3 c -22.03,40 -51.94,34.8 -42.63,83 l 22.4,116.1 c 2.75,14.3 -8.2,28.5 -24.49,31.6 l -23.42,4.5 c -26.33,-46.9 -51.16,-118.9 -67.11,-201.5 -21.23,-110.1 -20.83,-208.5 -2.27,-257" /><path
         id="path362"
         style="fill:#ffffff;fill-opacity:1;fill-rule:nonzero;stroke:none"
         d="m 4301.61,5743.2 3.6,4.1 c 35.12,92.2 94.13,177.2 159.67,252 104.33,118.9 227.71,221 323.61,346.9 52.7,69.1 96.51,144.7 149.86,213.4 125.13,161 298.55,278.7 427.55,436.7 139.63,171 222.67,387.4 233.26,607.9 4.98,104.1 -5.67,208.5 0.24,312.5 10.77,189.1 75.91,371.4 93.82,560 10.96,115.5 4.09,231.8 6.38,347.7 2.85,143.8 83.26,1392.1 292.33,1385.2 10.69,-0.4 19.54,-14.9 26.87,-39.5 171.81,196.4 451.34,280.5 713.47,190.8 203.36,-69.7 350.85,-228.4 413.98,-417.7 14.29,6.5 28.88,12.5 43.94,17.8 284.02,100.3 583.98,69.7 682.75,-221.3 13.52,-39.9 33.18,-207.1 37.43,-247.3 l 231.28,-1940.5 c 26.94,-226 13.32,-455 -40.19,-675.7 L 7686.37,5163.9 c -25.96,-107 -116.84,-184.3 -224.49,-190.8 -133.8,-20.9 -242.71,78.4 -258.02,233.1 -64.77,390.6 66.24,684.9 92.59,1081.8 9.64,145.3 5.96,292.9 31.33,435.3 29.48,165.4 98.07,328.6 71.07,495.9 -13.96,86.4 -52.55,164.8 -77.61,248 -43.6,144.6 -46.39,304.4 -104.57,442.1 -56.89,134.6 -127.06,251 -186.62,384.1 -41.22,92.1 -93.43,179.9 -128.28,275.4 -10.2,28 -21.79,55.1 -34.25,81.6 -227,-689.3 -393.88,-1135.8 -503.8,-1409.4 -94.02,-234 -238.21,-444.5 -422.27,-616.9 l -1295.19,-1213 c -92.33,-86.5 -236,-86.3 -328.08,0.5 -93.6,88.2 -100.91,234.5 -16.57,331.6" /><path
         id="path364"
         style="fill:#97cae1;fill-opacity:1;fill-rule:nonzero;stroke:none"
         d="m 4305.2,5747.3 c 37.63,98.4 99.53,185.6 169.29,263.7 69.88,78.6 147.22,149.9 218.98,226.5 35.87,38.3 70.21,78 101.19,120.3 31.04,42.3 59.13,86.6 88.48,130.2 29.05,43.8 60.52,86.3 95.3,125.9 34.6,39.7 71.72,77.1 109.64,113.5 75.77,72.9 154.9,142.2 225.22,219.5 70.57,77 129.8,163.9 174.08,258.2 44.62,94 75.18,194.6 90.09,297.4 7.39,51.4 10.98,103.2 10.77,155.3 0,52.1 -2.58,104.5 -3.6,157.2 -1.37,52.7 0.16,106.2 6.03,159 5.68,52.8 14.68,105 25.05,156.7 20.9,103.3 46.44,205 59.66,308.2 13.65,103 10.61,207.7 10.26,312.9 -0.07,26.3 0.03,52.6 0.64,79.2 0.81,26.5 2.23,52.7 3.71,79 3.04,52.6 6.69,105 10.77,157.5 16.66,209.6 38.57,418.9 72.52,626.8 17.46,103.9 37.31,207.6 67.27,309.4 15.32,50.7 32.58,101.3 59.72,148.8 14.19,23.2 30.34,47.3 58.05,62.5 3.65,1.6 7.2,3.4 11,4.7 3.97,0.9 7.89,2.1 11.94,2.7 0,0 6.18,0.4 9.27,0.6 0.98,0 1.94,0.2 3.95,-0.1 7.08,-0.8 12.69,-4.5 16.27,-7.9 7.23,-7.1 10.53,-14.1 13.68,-20.9 3.01,-6.7 5.3,-13.4 7.29,-20.1 l -23.07,5 c 78.32,88.9 180,156.7 292.05,195 111.92,39.1 234.38,45.7 350.31,22.5 116.32,-22.6 225.7,-77.8 314.44,-156.1 89.2,-78.1 155.6,-181 193.6,-293 l -18.38,8 43.16,17.6 c 14.52,5.1 29.02,10.1 43.75,14.5 29.38,8.9 59.12,16.8 89.32,22.8 60.32,12 122.17,18.6 184.16,15.1 61.82,-3.3 124.03,-16.2 180.81,-43.2 56.79,-26.7 106.84,-68.3 143.5,-119.3 18.56,-25.3 33.56,-53 45.86,-81.7 3.29,-7 6.11,-14.3 8.72,-21.6 2.63,-7.5 5.62,-14.2 7.83,-22.6 4.24,-15.7 6.83,-30.7 9.58,-45.8 10.14,-60.4 17.63,-120.6 24.62,-181 l 42.9,-361.2 172.18,-1444.6 c 7.04,-60.3 14.65,-120.1 21.22,-180.8 6.29,-60.7 9.71,-121.8 10.23,-182.8 0.93,-122.1 -9.83,-244.3 -32,-364.3 -10.84,-60.2 -25.86,-119.4 -40.05,-178.2 l -42.85,-176.7 -85.69,-353.5 -171.39,-706.9 -85.69,-353.5 -10.71,-44.2 c -1.89,-7.5 -4.27,-15.3 -6.4,-22.9 -2.75,-7.5 -5.4,-15 -8.47,-22.4 -12.64,-29.3 -30.53,-56.4 -52.61,-79.4 -44.19,-46.6 -105.44,-75.1 -168.69,-79 -42.97,-6.2 -88.68,-1.8 -128.58,17.1 -20.18,8.9 -38.2,21.8 -54.87,36 -15.83,15 -30.75,31.2 -42.12,49.8 -23.92,36.3 -38.42,78.1 -44.87,120.1 l -8.56,61.9 -4.23,30.8 -2.65,31.1 c -7.36,83 -6.62,166.6 0.26,249.4 6.74,82.9 19.61,164.9 33.71,246.3 28.78,162.7 60.27,324.3 71.02,488 5.36,81.9 6.59,164.3 11.23,247.1 4.56,82.5 13.25,166.1 32.18,247.2 18.09,81.1 41.28,160.2 54.59,240.5 6.64,40.1 10.74,80.5 10.23,120.8 -0.57,40.2 -5.6,80 -16.04,119 -20.51,78 -57.04,153.3 -77.02,235.1 -20.67,81 -31.28,163.3 -47.46,243.5 -8.09,40.1 -17.68,79.7 -30.62,118 -12.82,38.1 -30.04,75.4 -47.31,112.6 -34.91,74.2 -74.08,146.7 -110.94,220.8 -18.5,36.9 -36.09,75 -52.95,112.2 -17.29,37.1 -36.05,73.7 -54.5,110.7 -18.46,36.9 -36.55,74.4 -52.42,113.1 -14.96,39.7 -31.11,75.9 -46.72,113.8 l 25.01,1.5 C 6765.8,8299 6647.38,7953 6520.22,7610 c -31.78,-85.8 -64.26,-171.3 -97.47,-256.5 -16.7,-42.6 -33.32,-85.1 -50.7,-127.6 -17.21,-42.7 -36.8,-84.4 -57.29,-125.6 -82.83,-164.5 -191.89,-316 -322.94,-445.4 -32.91,-32.4 -66.74,-63.1 -100.23,-94.2 l -100.65,-93 -201.3,-186.1 L 5187.02,5909.4 4784.59,5537 4684,5443.9 c -17,-15.4 -32.97,-31.6 -50.99,-46 -18.18,-13.9 -37.75,-26.5 -59.24,-34.7 -21.35,-8.4 -43.71,-14.5 -66.61,-16.6 -22.85,-2.1 -45.94,-1.2 -68.56,2.8 -22.52,4.5 -44.35,11.9 -64.94,22.1 -20.35,10.6 -39.04,24.1 -56,39.5 -44.74,42.1 -72.15,101.8 -74.88,163 -3.13,61.3 18.44,123.2 58.83,169.2 z m -61.66,-173.2 c 2.97,-61.1 30.52,-120.4 75.16,-162 16.92,-15.2 35.53,-28.5 55.78,-39 20.47,-10 42.16,-17.3 64.5,-21.7 22.43,-3.9 45.32,-4.6 67.94,-2.5 22.66,2.3 44.77,8.4 65.85,16.7 21.2,8.3 40.53,20.7 58.39,34.6 17.52,14.4 33.5,31 50.26,46.4 l 99.5,94.3 397.92,377.2 397.76,377.4 198.87,188.7 99.44,94.3 c 33.13,31.5 66.57,62.7 98.39,94.9 127.48,128.9 235.68,277.1 317.38,439 41.23,80.7 73.49,165.8 106.94,250.9 33.14,85.1 65.57,170.4 97.32,256.1 126.97,342.5 245.32,688.2 359.98,1035.9 1.17,3.5 3.81,6.5 7.5,8 6.75,2.8 14.51,-0.4 17.31,-7.1 15.9,-38.4 33.17,-77.6 47.27,-115.1 15.45,-37.6 33.23,-74.5 51.61,-111.3 18.34,-36.8 37.24,-73.6 54.8,-111.3 17.2,-38 34.16,-74.7 52.65,-111.6 36.58,-73.6 75.87,-146.3 111.2,-221.3 17.43,-37.6 34.92,-75.4 48.46,-115.5 13.45,-39.8 23.28,-80.6 31.5,-121.3 16.39,-81.5 27,-163.2 47.15,-242.1 19.1,-78.8 55.35,-153.3 76.98,-235 10.94,-40.7 16.36,-83.3 16.93,-125.5 0.52,-42.3 -3.77,-84.3 -10.59,-125.5 -13.71,-82.5 -37.08,-162.1 -54.88,-242 -37.68,-159.3 -32.14,-324.9 -42.82,-490.2 -10.89,-165.8 -42.71,-328.8 -71.36,-490.8 -14.04,-81.1 -26.76,-162.3 -33.41,-243.9 -6.76,-81.6 -7.48,-163.5 -0.26,-244.8 l 2.58,-30.6 4.2,-30.5 8.38,-60.6 c 6.02,-39.4 19.35,-77.2 40.87,-109.9 10.2,-16.7 23.56,-31 37.5,-44.4 14.76,-12.4 30.54,-23.8 48.19,-31.6 34.87,-16.5 74.75,-20.4 115.04,-14.8 55.81,3.6 112.34,29.1 151.48,70.9 19.81,20.7 35.89,45 47.25,71.3 2.76,6.6 5.12,13.4 7.63,20.1 1.92,7 4,13.7 5.83,20.9 l 10.71,44.2 85.7,353.5 171.38,707 85.69,353.5 42.85,176.7 c 14.27,59.1 29.07,117.5 39.75,176.7 21.85,118.4 32.46,238.8 31.55,359.2 -0.52,60.2 -3.89,120.4 -10.1,180.2 -6.46,59.9 -14.15,120.3 -21.16,180.4 l -172.21,1444.8 -42.9,361.2 c -6.94,60 -14.44,120.2 -24.39,179.4 -2.63,14.6 -5.32,29.6 -8.96,43.1 -1.58,6.3 -4.71,13.6 -7.12,20.4 -2.46,6.9 -5.13,13.8 -8.24,20.5 -11.61,27 -25.66,52.9 -42.95,76.5 -34.18,47.5 -80.29,85.8 -133.23,110.7 -52.89,25.2 -111.59,37.5 -170.65,40.7 -59.18,3.3 -118.89,-3 -177.35,-14.6 -29.28,-5.8 -58.19,-13.5 -86.8,-22.2 -14.32,-4.3 -28.52,-9.2 -42.57,-14.1 0,0 -41.07,-16.7 -42.28,-17.2 -7.08,-2.4 -14.77,1.4 -17.17,8.5 -36.51,107.5 -100.27,206.3 -185.89,281.3 -85.15,75.1 -190.17,128.2 -301.92,149.8 -111.28,22.3 -228.78,16 -336.27,-21.6 -107.59,-36.7 -205.24,-101.8 -280.42,-187.1 -1.62,-1.9 -3.8,-3.3 -6.3,-4.1 -7.14,-2.1 -14.66,2 -16.79,9.1 -1.76,5.9 -3.76,11.6 -6.08,16.9 -2.21,5.1 -5.18,10 -8.43,12.9 l -6.42,-0.4 c -2.42,-0.4 -4.79,-1.2 -7.22,-1.7 -2.38,-0.8 -4.72,-2.1 -7.11,-3 -18.96,-10.1 -34.39,-30.8 -47.08,-52.1 -25.06,-43.8 -42.22,-93.3 -57.13,-143 -29.39,-99.8 -49.17,-202.8 -66.51,-306 -33.75,-206.7 -55.63,-415.5 -72.22,-624.5 -4.08,-52.3 -7.72,-104.6 -10.75,-156.9 -1.47,-26.1 -2.88,-52.3 -3.68,-78.3 -0.58,-25.9 -0.7,-52.2 -0.62,-78.3 0.31,-104.6 3.48,-210.8 -10.48,-316.4 -13.64,-105.2 -38.89,-207.7 -59.39,-310.2 -10.25,-51.3 -19.35,-102.7 -24.99,-154.3 -5.88,-51.5 -7.37,-103.3 -6.81,-155.6 0.4,-52.2 2.38,-104.8 1.77,-157.7 -0.4,-52.9 -4.68,-106.2 -12.85,-158.6 -16.46,-104.9 -48.84,-207 -95.37,-302.2 -46.42,-95.3 -108.14,-182.9 -180.65,-259.7 -72.19,-77.1 -152.54,-145.2 -229.05,-216.9 -38.23,-35.8 -75.6,-72.6 -110.45,-111.7 -35.02,-38.9 -66.72,-80.6 -96.25,-123.9 -29.8,-43.2 -58.49,-87.3 -90.13,-129.3 -31.62,-42.1 -66.6,-81.5 -102.55,-119.7 -72.16,-76.4 -149.78,-147.4 -219.92,-225.6 -70.02,-77.8 -132.23,-164.6 -170.29,-262.8 l -3.6,-4.1 c -40.2,-46.2 -61.45,-108.1 -58.07,-169.1" /><path
         id="path366"
         style="fill:#fbd65d;fill-opacity:1;fill-rule:nonzero;stroke:none"
         d="m 7749.97,9560.6 c 91.39,-5.9 175.79,68.1 182.07,159.9 22.03,322 -61.79,490.5 -2.59,1248 55.59,711.5 233.95,1155.9 264.5,1525.8 0.56,0.4 86.61,435.8 -105.03,652.8 -326.1,369.2 -721.85,245.7 -1002.79,97.5 l -97.13,-53.9 c -360.65,-216.8 -293.28,-256.4 -293.28,-256.4 0,0 -58.26,-927.3 -224.39,-1463.6 -199.93,-645.5 -552.36,-814 -693.83,-1534.7 0,0 -20.15,-159 -7.01,-234.1 l 1979.48,-141.3" /><path
         id="path368"
         style="fill:#fbd65d;fill-opacity:1;fill-rule:nonzero;stroke:none"
         d="m 7608.61,9467.3 c -117.43,-28.3 -242.5,-50 -356.53,-23.1 -50.77,12 -97.27,33.3 -147.61,46.3 -154.61,40.1 -326.56,-0.6 -484.55,-47.6 -157.97,-46.9 -253.31,-54 -416.01,-40.5 -22.75,1.8 -123.74,33.5 -146.51,60.8 -27.97,33.5 -63.58,57.4 -110.87,64.6 -47.29,7.2 -104.4,25 -134.67,58.7 -53.82,60 -72.39,287.8 -3.03,344.1 69.37,56.2 184.18,-88.9 277.43,-77.3 297.28,36.8 596.48,32.7 894.08,28.5 188.46,-2.6 376.92,-5.2 565.39,-7.9 55.31,-0.8 112.78,-2 160.7,-23.1 48.23,-21.2 77.75,-58.8 106.75,-96 27.14,-34.7 -9.23,-47.4 9.58,-83.5 28.78,-55.2 123.58,17.9 76.82,-66.7 -28.6,-51.7 -222.27,-120.8 -290.97,-137.3" /><path
         id="path370"
         style="fill:#97cae1;fill-opacity:1;fill-rule:nonzero;stroke:none"
         d="m 7166.5,8004.9 c -24.69,69.6 -48.02,139.8 -82.01,205 l -94.22,199.1 -188.42,398.4 c -1.8,3.8 -5.2,6.4 -8.98,7.3 l -144.2,35.5 -73.64,11.4 c -24.52,3.9 -49.12,7.5 -73.79,10.8 23.39,-8.5 46.85,-16.7 70.41,-24.6 l 70.57,-24 144.22,-35.3 -8.98,7.4 188.43,-398.4 94.21,-199.2 c 28.82,-67.6 68.3,-130.2 106.4,-193.4" /><g
         transform="scale(1.00626)"
         id="g372"><path
           id="path374"
           style="fill:#f57a73;fill-opacity:1;fill-rule:nonzero;stroke:none"
           d="m 8287.16,16296.6 c 15.2,3.4 30.42,-6.3 33.81,-21.5 l 30.54,-137.3 c 3.38,-15.2 -6.29,-30.4 -21.5,-33.8 -15.21,-3.4 -30.42,6.3 -33.81,21.5 l -30.54,137.3 c -3.38,15.2 6.29,30.4 21.5,33.8" /></g><g
         transform="scale(1.00812)"
         id="g376"><path
           id="path378"
           style="fill:#f57a73;fill-opacity:1;fill-rule:nonzero;stroke:none"
           d="m 8569.68,16115.6 c 7.82,23.1 13.51,47.3 8.67,66.5 -3.75,14.8 -13.45,25.4 -23.52,34.9 -25.9,24.4 -55.52,44.6 -88.16,60.1 -29.95,14.2 -69.38,22.9 -106.31,-4.2 -35.7,-26.2 -56.26,-68.2 -62.88,-108.3 -12.57,-76 -16.38,-103.2 9.45,-161 32.33,-72.3 90.09,-95 164.25,-14.6 38.16,41.4 81.48,76.5 98.5,126.6" /></g><g
         transform="scale(1.01673)"
         id="g380"><path
           id="path382"
           style="fill:#f57a73;fill-opacity:1;fill-rule:nonzero;stroke:none"
           d="m 8323.81,16100.1 145.52,153.2 c 9.85,10.4 9.42,27 -0.97,36.8 -10.38,9.9 -26.94,9.5 -36.81,-0.9 l -145.51,-153.3 c -9.86,-10.3 -9.43,-26.9 0.95,-36.8 10.4,-9.8 26.96,-9.4 36.82,1" /></g><g
         transform="scale(1.01465)"
         id="g384"><path
           id="path386"
           style="fill:#f57a73;fill-opacity:1;fill-rule:nonzero;stroke:none"
           d="m 8406.59,16099.7 145.8,153.5 c 9.88,10.4 9.45,27 -0.95,36.9 -10.41,9.9 -27,9.5 -36.88,-0.9 l -145.82,-153.6 c -9.87,-10.4 -9.44,-27 0.96,-36.9 10.42,-9.9 27.01,-9.4 36.89,1" /></g><g
         transform="scale(1.01194)"
         id="g388"><path
           id="path390"
           style="fill:#f57a73;fill-opacity:1;fill-rule:nonzero;stroke:none"
           d="m 8455.73,16099.1 146.21,154 c 9.9,10.4 9.47,27.1 -0.96,37 -10.44,9.9 -27.08,9.5 -36.99,-1 l -146.18,-153.9 c -9.92,-10.5 -9.49,-27.1 0.94,-37 10.44,-9.9 27.08,-9.5 36.98,0.9" /></g><g
         transform="scale(1.01014)"
         id="g392"><path
           id="path394"
           style="fill:#f57a73;fill-opacity:1;fill-rule:nonzero;stroke:none"
           d="m 8510.26,16015.8 92.36,102.7 c 28.26,31.5 41.99,73.5 37.24,115.5 -3.4,30.2 -10.3,57.2 -15.71,62.3 l -23.91,-6.2 c -10.45,9.9 -43.36,-10.1 -53.28,-20.6 l -96.33,-218.2 c -9.93,-10.4 -9.49,-27.1 0.96,-37 10.46,-10 48.75,-9 58.67,1.5" /></g><path
         id="path396"
         style="fill:#fbd65d;fill-opacity:1;fill-rule:nonzero;stroke:none"
         d="m 7826.77,12743.4 c 187.74,-68.6 190.98,-830.9 262.14,-637.5 106.94,292.7 399.58,1377.2 465.91,1557.8 53.94,146.9 -13.11,310.7 -154.53,377.7 -142.53,67.5 -312.94,14.3 -391.64,-122.4 -88.98,-154.5 -231.49,-525.1 -365.11,-850.2 -88.85,-216.1 -25.83,-249 183.23,-325.4" /><path
         id="path398"
         style="fill:#171e3c;fill-opacity:1;fill-rule:nonzero;stroke:none"
         d="m 6808.78,14065.5 c -29.43,55.1 -61.93,109.4 -93.03,163.6 -17.02,29.7 -34.43,59.2 -50.68,89.3 -8.73,16.2 -16.25,33.2 -25.26,49.2 -9.18,25.8 -18.37,51.5 -25.27,78.1 -4.12,15.8 -12.1,93.6 -10.01,36.4 2.2,-60 -0.98,22.4 -1.44,36.1 -0.9,26.7 0.48,53.1 1.55,79.8 0.54,4.5 0.98,7.2 1.51,9.9 5.18,25.9 11.65,51.6 19.27,76.9 5.96,19.9 14.8,39.4 21.47,59.2 2.93,6.2 5.83,12.4 8.96,18.5 22.8,44.1 49.72,85 77.64,125.8 6.54,7.6 12.97,15.4 19.66,22.9 15.79,17.8 32.7,34.5 49,51.8 118.13,125.3 338.06,133.8 369.65,132.8 27.16,-0.8 54.02,-3.4 81.03,-5.5 2.87,-0.5 5.74,-0.9 8.6,-1.4 50.61,-9.1 100.72,-21.2 149.86,-36.4 6.76,-2.1 13.67,-4.7 20.65,-7.5 0.12,-2.8 11.73,-9.6 40.6,-14.9 4.33,-2.1 8.66,-4.2 12.92,-6.4 41.78,-21.7 80,-47.7 119.09,-73.5 6.77,-6 13.67,-11.8 20.37,-18 19.86,-18.1 38.82,-37 56.65,-57.1 2.99,-4.5 4.8,-7.8 6.75,-11.4 0.12,-2.5 0.28,-4.9 0.5,-7.3 9.15,-100.9 122.77,-189.3 82.66,-283.5 -9.36,-22.1 -27.18,-42.9 -24.63,-66.5 2.58,-23.9 25.65,-41.4 30.85,-64.9 9.73,-44.2 -43.96,-80.6 -59.02,-121.6 -0.39,-4.2 -4.02,-27.8 -3.18,-31.2 -144.97,-300.9 -283.96,-498.2 -501.47,-531 -180.2,-27.1 -357.17,217.7 -405.25,307.8" /><path
         id="path400"
         style="fill:#171e3c;fill-opacity:1;fill-rule:nonzero;stroke:none"
         d="m 6498.44,13115.3 c 15.46,37.8 39.6,71.8 52.18,110.6 4.93,15.2 4.15,55.4 4.93,97 -12.92,52.5 -25.06,114 1.5,213.9 48.34,181.8 148.79,174.9 203.05,245.4 53.27,69.2 16.57,89.1 95.04,156.9 68.63,59.2 158.02,83.9 238.87,70.2 0,0 48.12,-11.6 66.82,-20.9 20.1,-9.9 39.23,-21.9 58.63,-33.2 23.85,0.7 114.21,-2.4 148.09,-51.1 25.77,-37 33.48,-81 33.28,-121.1 0.61,-9.1 0.71,-18.7 0.2,-28.8 -0.77,-14.8 -3.69,-29.7 -3.65,-44.5 0.13,-50.9 -18.33,-91.3 -5.54,-139.1 13.25,-49.5 4.81,-103 -26.31,-144.5 -41.31,-55.1 -64.38,-86.2 -85.93,-153.4 -17.33,-54.1 6.81,-111 1.27,-167.4 -5.59,-57.1 -40.76,-106.7 -77.74,-148.2 -37,-41.4 -78.32,-79.9 -103.35,-131.3 -5.11,-10.5 -9.42,-21.3 -13.49,-32.3 -4.74,-19.8 -11.97,-38.9 -21.34,-56.9 -1.44,-3.4 -2.89,-6.7 -4.45,-10 -25.25,-52.9 -70.16,-92.5 -119.76,-111.3 -8.06,-4 -16.32,-7.6 -24.78,-10.8 -80.5,-30.3 -149.75,6.3 -198.69,66.7 -33.89,41.8 -71.64,79.8 -117.37,105.1 -33.75,18.8 -65.71,38.8 -83.72,74.9 -38.75,77.8 -53.27,177.2 -17.74,264.1" /><path
         id="path402"
         style="fill:#f57a73;fill-opacity:1;fill-rule:nonzero;stroke:none"
         d="m 7637.8,14350.2 c -51.05,-10.5 -79.84,-79.9 -64.27,-154.9 15.55,-75 69.55,-127.2 120.61,-116.6 51.06,10.6 79.84,79.9 64.29,154.9 -15.57,75 -69.56,127.3 -120.63,116.6" /><path
         id="path404"
         style="fill:#171e3c;fill-opacity:1;fill-rule:nonzero;stroke:none"
         d="m 7800.59,14674.7 c -0.88,31.4 -13.47,61.4 -25.85,90.5 -15,35.2 -29.98,70.4 -44.97,105.7 -13.11,30.8 -26.64,62.2 -49.77,87 -39.65,42.5 -100.88,58.8 -159.04,70.6 -57.68,11.7 -177.73,61 -236.26,67.8 -106.42,12.4 -223.17,-15.4 -326.77,-41.8 -103.59,-26.4 -132.41,-95 -182.48,-185.9 -31.41,-57.1 -39.64,-134 6.12,-181.4 19.03,-19.6 45,-31.7 71.02,-41.5 80.75,-30.5 168.56,-43.6 255.15,-38.2 72.88,4.6 144.96,22.2 217.94,19.4 117.04,-4.5 230.36,-64.7 296.39,-157.6 16.48,-23.2 32.13,-49.8 59.37,-60.1 69.14,-25.9 55.93,66.2 65.25,99.3 15.82,56.1 55.59,105.9 53.9,166.2" /><path
         id="path406"
         style="fill:#ffffff;fill-opacity:1;fill-rule:nonzero;stroke:none"
         d="m 7396.32,13793.4 c 7.92,0 15.91,2.4 22.92,7.2 18.4,12.7 23.04,37.9 10.36,56.3 -251.39,364.8 -593.83,136.8 -597.26,134.4 -18.44,-12.6 -23.16,-37.8 -10.54,-56.2 12.59,-18.5 37.7,-23.2 56.16,-10.6 11.38,7.7 279.89,184.2 484.99,-113.5 7.86,-11.4 20.5,-17.5 33.37,-17.6" /><g
         transform="scale(1.04498)"
         id="g408"><path
           id="path410"
           style="fill:#f8a479;fill-opacity:1;fill-rule:nonzero;stroke:none"
           d="m 15719,10636 581,619.5 -406,229.5 -290.4,-475.5 c -5.8,-9.7 -20.5,-7.1 -22.8,3.9 l -328.5,1124.3 -221.1,-46.2 284.5,-1361.4 c 1,-5 2.3,-10.1 3.6,-15.1 22.5,-80.5 85.7,-141.3 168.1,-160.6 87.4,-20.3 176.2,10.9 231.6,81.6" /></g><path
         id="path412"
         style="fill:#f57a73;fill-opacity:1;fill-rule:nonzero;stroke:none"
         d="m 15598.1,12567.7 c 5.1,16.8 22.9,26.4 39.7,21.3 l 151.1,-45.5 c 16.7,-5 26.3,-22.9 21.3,-39.6 -5.1,-16.8 -22.9,-26.3 -39.6,-21.3 l -151.2,45.5 c -16.7,5.1 -26.3,22.9 -21.3,39.6" /><path
         id="path414"
         style="fill:#f57a73;fill-opacity:1;fill-rule:nonzero;stroke:none"
         d="m 15922.8,12762.8 c -15.8,22.4 -34,43.6 -54.7,51.9 -16,6.5 -31.9,4.6 -47.3,1.8 -39.3,-7.3 -77.3,-20.8 -113,-40.2 -32.7,-17.8 -66.8,-47.8 -66.6,-99.4 0.1,-49.8 24.6,-96.3 56.7,-128.8 60.6,-61.8 82.8,-83.3 152.4,-98.2 87.2,-18.6 146,18.9 122.1,139.5 -12.3,62.1 -15.4,124.7 -49.6,173.4" /><path
         id="path416"
         style="fill:#f57a73;fill-opacity:1;fill-rule:nonzero;stroke:none"
         d="m 15696.1,12684.9 -43.1,235.7 c -2.9,16 -18.4,26.7 -34.3,23.8 -16,-3 -26.7,-18.4 -23.7,-34.4 l 43,-235.7 c 3,-16 18.4,-26.7 34.4,-23.7 16,2.9 26.6,18.3 23.7,34.3" /><path
         id="path418"
         style="fill:#f57a73;fill-opacity:1;fill-rule:nonzero;stroke:none"
         d="m 15770.5,12722.8 -43.1,235.7 c -2.9,16 -18.4,26.6 -34.4,23.7 -15.9,-2.9 -26.6,-18.3 -23.7,-34.3 l 43.1,-235.8 c 2.9,-15.9 18.4,-26.6 34.3,-23.7 16,2.9 26.7,18.4 23.8,34.4" /><path
         id="path420"
         style="fill:#f57a73;fill-opacity:1;fill-rule:nonzero;stroke:none"
         d="m 15828,12718 -43.1,235.7 c -2.9,16 -18.4,26.7 -34.4,23.8 -15.9,-2.9 -26.6,-18.4 -23.7,-34.4 l 43.1,-235.7 c 2.9,-16 18.4,-26.7 34.3,-23.7 16,2.9 26.7,18.3 23.8,34.3" /><path
         id="path422"
         style="fill:#f57a73;fill-opacity:1;fill-rule:nonzero;stroke:none"
         d="m 15956.2,12679.4 -32.2,152.3 c -9.8,46.6 -38.9,87 -80.3,110.6 -29.8,17 -58.9,28.6 -67.2,27.1 l -10.2,-25.9 c -15.9,-2.9 -19.6,-46.2 -16.6,-62.2 l 134.6,-232.5 c 2.9,-16 18.3,-26.7 34.3,-23.8 16,3 40.5,38.5 37.6,54.4" /><path
         id="path424"
         style="fill:#171e3c;fill-opacity:1;fill-rule:nonzero;stroke:none"
         d="m 15196.5,9162.7 c 72.5,8.3 128,70.7 126.2,145 l -64.2,2667.6 c -1.9,78.6 -67.2,140.8 -145.9,138.9 -78.6,-2 -140.9,-67.3 -139,-145.9 l 64.2,-2667.6 c 1.9,-78.6 67.2,-140.8 145.8,-138.9 4.4,0.1 8.7,0.4 12.9,0.9" /><path
         id="path426"
         style="fill:#171e3c;fill-opacity:1;fill-rule:nonzero;stroke:none"
         d="m 14135.1,13270.9 c 88.3,-775.8 499.8,-1365.9 918.9,-1318 419.2,47.9 687.3,715.6 599,1491.4 -88.4,775.8 -499.8,1365.9 -919,1318 -419.1,-47.9 -687.3,-715.6 -598.9,-1491.4" /><path
         id="path428"
         style="fill:#b7d1ed;fill-opacity:1;fill-rule:nonzero;stroke:none"
         d="m 15352.8,12022.9 c 396.6,45.3 649.8,693 564.3,1443.8 -85.5,750.7 -477.8,1324.7 -874.5,1279.4 -396.7,-45.3 -649.8,-693 -564.3,-1443.8 85.5,-750.8 477.8,-1324.8 874.5,-1279.4" /><path
         id="path430"
         style="fill:#171e3c;fill-opacity:1;fill-rule:nonzero;stroke:none"
         d="m 15038.6,14781.5 c -416.9,-47.7 -683.6,-711.7 -595.7,-1483.2 87.9,-771.6 497,-1358.4 913.9,-1310.8 416.9,47.6 683.5,711.7 595.7,1483.2 -87.9,771.6 -497.1,1358.4 -913.9,1310.8 z m 8,-70.8 c 370.8,42.4 753.2,-529.2 835.1,-1248.1 81.8,-718.9 -162.2,-1362 -533,-1404.3 -370.7,-42.4 -753.1,529.2 -835,1248 -81.9,718.9 162.2,1362.1 532.9,1404.4 v 0" /><path
         id="path432"
         style="fill:#171e3c;fill-opacity:1;fill-rule:nonzero;stroke:none"
         d="m 15079.8,14784.2 -325.8,-21 70.3,-101.6 z" /><g
         transform="scale(1.0365)"
         id="g434"><path
           id="path436"
           style="fill:#f57a73;fill-opacity:1;fill-rule:nonzero;stroke:none"
           d="m 15879.5,13773.5 c -56.6,35.5 -127.1,34.1 -185.8,1.9 -19.6,-10.6 -33.4,-30.9 -43.9,-82 l -73.2,-350 c -19.3,-92.4 -19.5,-188.3 3.8,-279.9 34,-134.7 105.7,-216.8 238.9,-244.4 185.4,-38.5 367.9,79.2 410.9,286.7 l 50.2,240.2 c 19.6,94 -21.4,190.2 -102.8,241.1 l -298.1,186.4" /></g><g
         transform="scale(1.03366)"
         id="g438"><path
           id="path440"
           style="fill:#f57a73;fill-opacity:1;fill-rule:nonzero;stroke:none"
           d="m 15892.4,13140.4 c 6.1,44.6 41.2,77 78,71.9 l 267.7,-36.5 c 36.8,-5.1 61.9,-45.6 55.8,-90.3 l -82.1,-602.1 c -15.2,-111.2 -117.9,-188.9 -228.9,-173.3 -110.5,15.5 -187.7,117.5 -172.6,228 l 82.1,602.3" /></g><g
         transform="scale(1.00104)"
         id="g442"><path
           id="path444"
           style="fill:#f57a73;fill-opacity:1;fill-rule:nonzero;stroke:none"
           d="m 16247,4657.37 53,-440.44 -213.9,-29.77 -109.5,444.44 270.4,25.77" /></g><g
         transform="scale(1.00131)"
         id="g446"><path
           id="path448"
           style="fill:#292651;fill-opacity:1;fill-rule:nonzero;stroke:none"
           d="m 16300,4053.28 c 0,-22.27 -15.8,-40.45 -35.3,-40.45 h -528.5 c -28.3,0 -51.2,26.37 -51.4,58.72 h 615.2 v -18.27" /></g><g
         transform="scale(1.00131)"
         id="g450"><path
           id="path452"
           style="fill:#fbd65d;fill-opacity:1;fill-rule:nonzero;stroke:none"
           d="m 15685,4092.93 c 0.4,26.96 15.3,50.83 37.5,60.02 l 121.1,46.84 c 43.4,-27.27 138.5,-46.14 249,-46.14 82.9,0 157.2,10.68 207.4,27.46 v -109.56 h -615.2 c -0.1,0.1 0.2,21.38 0.2,21.38" /></g><g
         transform="scale(1.00131)"
         id="g454"><path
           id="path456"
           style="fill:#f57a73;fill-opacity:1;fill-rule:nonzero;stroke:none"
           d="m 15843.6,4199.79 241.7,91.98 c 34.5,-28.96 23.8,-57.13 72.3,-57.13 h 116.4 c 14.4,0 26,-13.38 26,-29.86 v -23.67 c -50.2,-16.78 -124.5,-27.46 -207.4,-27.46 -110.5,0 -205.6,18.87 -249,46.14" /></g><g
         transform="scale(1.0276)"
         id="g458"><path
           id="path460"
           style="fill:#686aa5;fill-opacity:1;fill-rule:nonzero;stroke:none"
           d="m 15656,6109.37 215.5,-1471.58 c 8.7,-180.81 -105.3,-303.81 -249,-281.24 -103.3,6.33 -190.5,80.97 -215.5,184.51 l -398.5,1655.99 c -51.3,213.51 -64.4,434.9 -38.5,653.47 l 222,1876.6 c 4.1,38.93 22.9,200.66 35.9,239.2 94.8,281.43 382.7,311.01 655.4,214.09 272.6,-97.02 416.7,-403.76 321.9,-685.29 l -488,-1677.79 c -66.7,-229.37 -87.5,-470.22 -61.2,-707.96" /></g><g
         transform="scale(1.03918)"
         id="g462"><path
           id="path464"
           style="fill:#686aa5;fill-opacity:1;fill-rule:nonzero;stroke:none"
           d="m 15420.4,6911.67 c 30.1,119.23 70.6,234.51 114.2,347.97 135.4,352.1 247.3,692.66 439.5,1006.37 29.8,48.69 117.8,95.84 166.7,110.47 159.2,47.63 58.3,-172.16 32,-236.34 -56,-136.65 -142.1,-253.47 -192.9,-393.49 -33,-91.41 -49.9,-190.43 -89,-278.48 -56.6,-127.31 -155.8,-223.54 -209.8,-352.3 -55.3,-131.64 -57.9,-284.35 -99.3,-422.73 -23.7,-79.59 -60.4,-154.55 -73.7,-237.21 -25.6,-160.03 39.6,-316.02 67.5,-474.22 24.1,-136.07 20.6,-277.23 29.7,-416.29 25.2,-382.8 151.6,-665.61 86.4,-1043.89 -84.1,411.09 -207,713.83 -278.8,1128.48 -71.8,414.65 -96,852.4 7.5,1261.66" /></g><g
         transform="scale(1.06086)"
         id="g466"><path
           id="path468"
           style="fill:#f57a73;fill-opacity:1;fill-rule:nonzero;stroke:none"
           d="m 16249.9,4406.24 50.1,-415.61 -201.8,-28.08 -103.3,419.37 255,24.32" /></g><g
         transform="scale(1.06113)"
         id="g470"><path
           id="path472"
           style="fill:#292651;fill-opacity:1;fill-rule:nonzero;stroke:none"
           d="m 16300,3836.27 c 0,-21.02 -14.9,-38.17 -33.4,-38.17 H 15768 c -26.8,0 -48.4,24.88 -48.5,55.42 h 580.5 v -17.25" /></g><g
         transform="scale(1.06113)"
         id="g474"><path
           id="path476"
           style="fill:#fbd65d;fill-opacity:1;fill-rule:nonzero;stroke:none"
           d="m 15719.7,3873.68 c 0.4,25.45 14.4,47.97 35.3,56.64 l 114.3,44.2 c 41,-25.73 130.7,-43.54 235,-43.54 78.2,0 148.3,10.08 195.7,25.92 v -103.38 h -580.5 c -0.2,0.09 0.2,20.16 0.2,20.16" /></g><g
         transform="scale(1.06113)"
         id="g478"><path
           id="path480"
           style="fill:#f57a73;fill-opacity:1;fill-rule:nonzero;stroke:none"
           d="m 15869.3,3974.52 228,86.79 c 32.7,-27.33 22.6,-53.9 68.3,-53.9 h 109.9 c 13.6,0 24.5,-12.63 24.5,-28.18 v -22.33 c -47.4,-15.84 -117.5,-25.92 -195.7,-25.92 -104.3,0 -194,17.81 -235,43.54" /></g><g
         transform="scale(1.08742)"
         id="g482"><path
           id="path484"
           style="fill:#686aa5;fill-opacity:1;fill-rule:nonzero;stroke:none"
           d="m 15691.4,5784.5 203.7,-1390.63 c 8.2,-170.95 -99.5,-287.1 -235.3,-265.76 -97.7,5.88 -180.2,76.51 -203.7,174.36 l -376.5,1564.89 c -48.6,201.67 -60.9,410.97 -36.4,617.51 l 209.7,1773.37 c 3.9,36.78 21.7,189.62 34,226.04 89.5,265.95 361.7,293.9 619.2,202.31 257.7,-91.68 393.9,-381.54 304.3,-647.59 l -461.2,-1585.49 c -62.9,-216.75 -82.6,-444.35 -57.8,-669.01" /></g><g
         transform="scale(1.08901)"
         id="g486"><path
           id="path488"
           style="fill:#686aa5;fill-opacity:1;fill-rule:nonzero;stroke:none"
           d="m 15625,6854.1 c 29.5,126.26 68.9,248.67 111.3,368.96 131.4,373.55 58.3,782.18 243.8,1115.51 28.7,51.69 93.2,259.86 140,275.75 152.2,51.33 179.9,-123.69 157.4,-317.44 -17.9,-153.9 -107.8,-407.26 -157,-555.74 -32.2,-96.88 -4.9,-201.65 -42.8,-295.13 -54.7,-135.07 -141.9,-324.79 -194.2,-461.42 -53.6,-139.67 -65.3,-214.14 -105.7,-360.88 -23.3,-84.3 -58.7,-163.91 -71.8,-251.52 -25.5,-169.51 35.7,-334.24 61.4,-501.46 22.1,-143.98 17.9,-293.38 25.8,-440.49 21.7,-404.95 140.5,-703.57 76,-1104.39 -77.7,434.61 -193.3,754.35 -259.2,1192.73 -66,438.38 -86.3,901.64 15,1335.52" /></g><g
         transform="scale(1.08779)"
         id="g490"><path
           id="path492"
           style="fill:#97cae1;fill-opacity:1;fill-rule:nonzero;stroke:none"
           d="m 14461.8,8405.38 c -83.7,-5.33 -150.3,61.87 -143.9,145.07 22.6,291.96 120.9,444.75 167.4,1131.65 43.7,645.1 -59.2,1048.1 -38,1383.4 -0.4,0.4 -20.9,395.2 181.6,592 344.6,334.7 687.1,222.8 922.2,88.4 l 80.9,-48.9 c 298.4,-196.5 232.1,-232.5 232.1,-232.5 0,0 -69.9,-840.8 9.8,-1327.1 95.9,-585.29 393.2,-738.08 426.1,-1391.51 0,0 -2.8,-144.24 -24.6,-212.27 l -1813.6,-128.24" /></g><g
         transform="scale(1.08955)"
         id="g494"><path
           id="path496"
           style="fill:#97cae1;fill-opacity:1;fill-rule:nonzero;stroke:none"
           d="m 14554.1,8307.41 c 102.6,-25.61 213,-45.25 319.8,-20.84 47.5,10.83 92.4,30.11 139.8,41.85 145.2,36.35 295.5,-0.55 432.3,-43.04 136.8,-42.5 222.2,-48.92 371.2,-36.71 20.9,1.74 116.5,30.38 140.7,55.06 29.8,30.38 65.2,51.95 108.9,58.47 43.8,6.52 97.8,22.67 129.7,53.14 56.6,54.34 103.5,260.57 48.2,311.51 -55.4,50.84 -178.5,-80.5 -261.3,-70.03 -264.4,33.4 -535.8,29.64 -805.7,25.88 -171,-2.39 -341.9,-4.77 -512.9,-7.16 -50.2,-0.64 -102.3,-1.74 -148.5,-20.93 -46.5,-19.18 -78.2,-53.23 -109.4,-86.91 -29.1,-31.39 2.1,-42.87 -19.6,-75.54 -33.3,-49.93 -109.5,16.15 -78.4,-60.39 19.1,-46.81 185.3,-109.4 245.2,-124.36" /></g><g
         transform="scale(1.04302)"
         id="g498"><path
           id="path500"
           style="fill:#43476f;fill-opacity:1;fill-rule:nonzero;stroke:none"
           d="m 15670.9,7195.27 c 35.9,59.83 73.1,119.08 100.4,183.03 l 89.1,188.3 178.2,376.69 -8.4,-6.8 136.4,33.46 66.8,22.53 c 22.3,7.38 44.5,15.15 66.6,23.11 -23.3,-3.08 -46.6,-6.53 -69.8,-10.27 l -69.6,-10.83 -136.3,-33.55 c -3.9,-0.96 -6.8,-3.55 -8.4,-6.81 l -178.2,-376.79 -89.1,-188.31 c -32.1,-61.64 -54.2,-127.99 -77.7,-193.76" /></g><path
         id="path502"
         style="fill:#655bb3;fill-opacity:1;fill-rule:nonzero;stroke:none"
         d="m 16204.5,9034.5 c -57.5,-10.9 -116.3,-10.1 -173.7,-3.1 -57.6,7.1 -114.1,20.8 -170.1,36.6 -27.3,7.8 -54.3,18.5 -81.4,28.3 -27.2,9.8 -53.9,20.8 -79.9,33.2 -25.8,12.3 -51.4,25.8 -73.6,42.1 -10.4,8.2 -21.2,17.6 -24.9,26.5 -2.5,6.4 -4.9,12.8 -6.1,18.6 -0.6,2.8 -0.8,5.5 -0.7,6.7 -1,-0.7 4.2,16 4.2,16 -10.1,22.4 -14,46.7 -11.1,71.8 2.6,26.5 4.7,52.9 8.5,79.2 6.6,52.7 16.3,105 27,157.2 21.7,104.5 46,209.1 65.3,314.6 19.6,105.5 35.3,211.8 48.1,318.3 12.4,106.5 22.4,213.3 30,320.2 15.7,213.8 21.9,428.5 16,643 -1.4,53.6 -3.7,107.2 -6.6,160.7 -1.3,26.8 -2.6,53.6 -5.2,80.3 l -8.5,80 c -12.3,106.6 -27.1,212.7 -44.9,318.3 20.2,-213.3 31,-426.7 38.9,-640.1 5.9,-213.4 -0.2,-427.2 -15.9,-640.3 -7.5,-106.6 -17.5,-213 -29.8,-319 -12.9,-106 -28.4,-211.7 -47.9,-316.6 -19.2,-105 -43.4,-209 -65.2,-314.1 -10.8,-52.6 -20.6,-105.6 -27.3,-159.1 -3.9,-26.7 -6,-53.6 -8.7,-80.4 -3.2,-28 1.3,-58.6 13.4,-84.9 l 5.3,16.7 c -7.3,-3.8 -11.5,-13.2 -11.7,-18.9 -0.5,-6 0.3,-10.7 1.1,-15 1.9,-8.6 4.6,-15.8 7.5,-23 2,-4 4.5,-8.3 7,-12.3 2.6,-3.6 5.5,-6.4 8.3,-9.6 5.8,-6.1 11.9,-10.9 18.1,-15.8 24.9,-18.3 51.4,-32 78.2,-44.9 53.9,-24.8 108.3,-47.3 167,-60.1 57.4,-12.4 115.6,-22.7 174.4,-26.4 58.8,-3.8 118.4,0.1 174.9,15.3" /><g
         transform="scale(1.06522)"
         id="g504"><path
           id="path506"
           style="fill:#fbd65d;fill-opacity:1;fill-rule:nonzero;stroke:none"
           d="m 16108.7,12754.8 c 27.2,51.1 57.3,101.4 86.2,151.5 15.7,27.5 31.8,54.9 46.9,82.7 8.1,15.1 15,30.8 23.4,45.7 8.4,23.8 17,47.6 23.3,72.2 3.9,14.7 11.3,86.7 9.3,33.7 -2,-55.5 0.9,20.8 1.4,33.5 0.8,24.8 -0.5,49.1 -1.5,73.9 -0.5,4.1 -0.9,6.6 -1.4,9.1 -4.7,24 -10.8,47.8 -17.8,71.3 -5.5,18.3 -13.7,36.4 -19.9,54.7 -2.7,5.8 -5.4,11.6 -8.3,17.1 -21.1,41 -46.1,78.7 -71.9,116.5 -6.1,7.1 -12,14.3 -18.2,21.2 -14.6,16.5 -30.3,32 -45.3,48 -109.4,116 -313.1,123.9 -342.3,123 -25.2,-0.8 -50,-3.1 -75.1,-5.1 -2.6,-0.4 -5.3,-0.8 -7.9,-1.3 -46.9,-8.4 -93.3,-19.6 -138.8,-33.7 -6.2,-1.9 -12.6,-4.4 -19.1,-6.9 -0.1,-2.7 -10.9,-9 -37.6,-13.8 -4,-1.9 -8,-3.9 -12,-6 -38.6,-20 -74,-44.1 -110.3,-68 -6.3,-5.6 -12.6,-11 -18.8,-16.6 -18.3,-16.8 -36,-34.4 -52.5,-53 -2.7,-4.1 -4.4,-7.2 -6.2,-10.5 -0.1,-2.2 -0.3,-4.6 -0.5,-6.8 -8.4,-93.5 -113.7,-175.2 -76.5,-262.5 8.6,-20.5 25.2,-39.6 22.8,-61.5 -2.4,-22.3 -23.7,-38.4 -28.6,-60.2 -9,-40.8 40.7,-74.6 54.7,-112.6 0.3,-3.8 3.7,-25.7 2.9,-28.9 134.3,-278.5 263,-461.3 464.4,-491.6 166.8,-25.2 330.7,201.6 375.2,284.9" /></g><g
         transform="scale(1.09469)"
         id="g508"><path
           id="path510"
           style="fill:#fbd65d;fill-opacity:1;fill-rule:nonzero;stroke:none"
           d="m 16253.8,11511.1 c -20.2,49.2 -51.6,93.4 -68.1,144 -6.4,19.8 -5.4,72.2 -6.4,126.3 16.8,68.5 32.6,148.6 -1.9,278.7 -63,236.8 -193.8,227.9 -264.5,319.7 -69.5,90.2 -21.7,116.2 -123.9,204.4 -89.4,77.2 -205.8,109.4 -311.2,91.6 0,0 -62.7,-15.2 -87,-27.3 -26.2,-12.9 -51.2,-28.5 -76.5,-43.3 -31,1 -148.7,-3.2 -192.9,-66.6 -33.5,-48.1 -43.6,-105.5 -43.3,-157.7 -0.8,-11.9 -0.9,-24.4 -0.3,-37.5 1,-19.3 4.8,-38.7 4.8,-58 -0.2,-66.3 23.8,-118.9 7.2,-181.2 -17.3,-64.5 -6.3,-134.3 34.2,-188.3 53.9,-71.8 83.9,-112.3 112,-199.9 22.6,-70.4 -8.8,-144.6 -1.6,-218 7.2,-74.5 53.1,-139.1 101.2,-193 48.2,-54 102.1,-104.3 134.7,-171.2 6.6,-13.6 12.3,-27.8 17.6,-42 6.1,-25.8 15.5,-50.7 27.8,-74.2 1.9,-4.4 3.7,-8.7 5.8,-13 32.9,-69 91.4,-120.5 155.9,-145 10.6,-5.2 21.3,-9.9 32.4,-14 104.9,-39.6 195.1,8.1 258.9,86.8 44.1,54.5 93.2,103.9 152.9,137 43.9,24.4 85.6,50.5 109.1,97.5 50.4,101.3 69.3,230.9 23.1,344.2" /></g><g
         transform="scale(1.00739)"
         id="g512"><path
           id="path514"
           style="fill:#f57a73;fill-opacity:1;fill-rule:nonzero;stroke:none"
           d="m 16221.8,13765.9 c 50,-10.3 78.2,-78.2 62.9,-151.7 -15.2,-73.4 -68.1,-124.5 -118,-114.1 -50,10.3 -78.2,78.2 -63.1,151.7 15.3,73.4 68.2,124.5 118.2,114.1" /></g><g
         transform="scale(1.05713)"
         id="g516"><path
           id="path518"
           style="fill:#fbd65d;fill-opacity:1;fill-rule:nonzero;stroke:none"
           d="m 15306.6,13420.8 c 0.7,29.4 12.4,57.3 24.1,84.5 13.9,32.9 27.9,65.7 41.9,98.5 12.2,28.8 24.9,58.1 46.4,81.3 37,39.6 94.2,54.9 148.5,65.8 53.8,11 165.8,56.9 220.4,63.3 99.3,11.7 208.2,-14.4 304.8,-38.9 96.7,-24.7 123.6,-88.7 170.3,-173.5 29.3,-53.3 37,-125.1 -5.7,-169.3 -17.7,-18.3 -42,-29.6 -66.3,-38.8 -75.3,-28.3 -157.2,-40.6 -238,-35.5 -68,4.2 -135.2,20.6 -203.4,18 -109.2,-4.1 -214.9,-60.3 -276.6,-147 -15.3,-21.6 -29.9,-46.5 -55.3,-56 -64.5,-24.3 -52.2,61.7 -60.9,92.6 -14.8,52.4 -51.8,98.7 -50.2,155" /></g><path
         id="path520"
         style="fill:#f57a73;fill-opacity:1;fill-rule:nonzero;stroke:none"
         d="m 14901.2,10987.8 698.6,547.3 -382.8,301.7 -375.5,-444.9 c -7.6,-9 -22.3,-4.1 -22.9,7.7 l -160.4,1213.4 -237,-12.5 77.2,-1451.3 c 1.5,-5.4 2,-10.8 2.6,-16.2 10.4,-86.7 65.9,-159.6 148,-192.6 87.1,-35 183.8,-16.8 252.2,47.4" /><g
         transform="scale(1.00382)"
         id="g522"><path
           id="path524"
           style="fill:#97cae1;fill-opacity:1;fill-rule:nonzero;stroke:none"
           d="m 16158.5,12404.3 c 141.5,-171.3 121.3,-427.4 -54.9,-573.6 -267,-220.5 -474.5,-393.6 -639.2,-530 -133.9,-111 -330.3,-101.4 -452.9,21.9 -123.5,124.2 -130.9,322.5 -16.9,455.6 128.9,150.4 603.4,539.5 841.9,817.7 170.2,196.1 164.5,-1 322,-191.6" /></g><path
         id="path526"
         style="fill:#f57a73;fill-opacity:1;fill-rule:nonzero;stroke:none"
         d="m 14792.7,12553.6 c -8,15.6 -27.2,21.9 -42.8,14 l -140.7,-71.5 c -15.6,-7.9 -21.9,-27.2 -14,-42.8 8,-15.6 27.2,-21.8 42.8,-13.9 l 140.7,71.5 c 15.6,7.9 21.9,27.2 14,42.7" /><path
         id="path528"
         style="fill:#f57a73;fill-opacity:1;fill-rule:nonzero;stroke:none"
         d="m 14438.7,12688.3 c 11.6,24.8 25.7,48.9 44.6,60.7 14.6,9.2 30.7,10.2 46.2,10.2 40.1,-0.3 79.8,-6.9 118.4,-19.7 35.4,-11.7 74.2,-35.2 83.1,-86 8.7,-49 -7.2,-99.1 -33,-136.9 -48.8,-71.5 -66.8,-96.6 -132.7,-123.5 -82.5,-33.6 -147,-7.2 -144.9,115.8 1.2,63.3 -6.8,125.4 18.3,179.4" /><path
         id="path530"
         style="fill:#f57a73;fill-opacity:1;fill-rule:nonzero;stroke:none"
         d="m 14674.3,12651.7 0.8,239.6 c 0.1,16.2 13.4,29.5 29.6,29.4 16.3,0 29.5,-13.4 29.5,-29.6 l -0.8,-239.6 c -0.1,-16.3 -13.4,-29.5 -29.6,-29.5 -16.3,0.1 -29.5,13.4 -29.5,29.7" /><path
         id="path532"
         style="fill:#f57a73;fill-opacity:1;fill-rule:nonzero;stroke:none"
         d="m 14594.5,12675.8 0.8,239.6 c 0,16.3 13.3,29.5 29.6,29.5 16.2,-0.1 29.4,-13.4 29.4,-29.7 l -0.8,-239.6 c 0,-16.2 -13.4,-29.5 -29.6,-29.4 -16.2,0 -29.5,13.4 -29.4,29.6" /><path
         id="path534"
         style="fill:#f57a73;fill-opacity:1;fill-rule:nonzero;stroke:none"
         d="m 14538.7,12661 0.8,239.6 c 0,16.2 13.4,29.5 29.6,29.4 16.2,0 29.5,-13.4 29.4,-29.6 l -0.7,-239.6 c -0.1,-16.3 -13.4,-29.5 -29.7,-29.5 -16.2,0.1 -29.4,13.4 -29.4,29.7" /><path
         id="path536"
         style="fill:#f57a73;fill-opacity:1;fill-rule:nonzero;stroke:none"
         d="m 14419.3,12600.3 4.8,155.6 c 1.4,47.6 23,92.5 59.5,123 26.3,22 53,38.6 61.4,38.6 l 14.6,-23.7 c 16.2,-0.1 27.4,-42 27.4,-58.3 l -91.5,-252.7 c 0,-16.2 -13.3,-29.4 -29.6,-29.4 -16.2,0.1 -46.6,30.7 -46.6,46.9" /><path
         transform="matrix(7.5000002,0,0,-7.5000002,0,25000)"
         id="path538"
         d="m 979.81524,1473.0104 c -14.94878,-14.2663 -28.12201,-18.1761 -47.16159,-13.9975 -7.55296,1.6576 -15.28722,3.2084 -17.18724,3.4463 -1.98585,0.2485 -9.39282,-10.1105 -17.42193,-24.3655 -12.37203,-21.9656 -14.0751,-26.7047 -14.91064,-41.4916 -1.19935,-21.2256 4.38162,-34.6392 22.29137,-53.5761 14.83765,-15.6886 28.52674,-21.2062 52.61235,-21.2062 17.79979,0 56.07734,10.7357 63.65314,17.8528 3.0528,2.8679 8.4159,12.372 11.918,21.1203 6.0999,15.2372 6.2081,16.3756 2.5738,27.0804 -2.0867,6.146 -3.1053,13.918 -2.2637,17.2712 2.4589,9.7972 -2.642,16.6735 -11.1119,14.9795 -5.5825,-1.1165 -8.0049,-0.1695 -11.1867,4.3731 -5.0349,7.1884 -5.1278,12.8598 -0.3617,22.0765 3.5841,6.9308 3.3505,7.6281 -7.4854,22.3476 -6.15163,8.3565 -11.46805,15.1675 -11.8142,15.1357 -0.34616,-0.032 -5.81081,-5.0027 -12.14366,-11.0465 z"
         style="fill:none;stroke-width:2.49684596" /><path
         transform="matrix(7.5000002,0,0,-7.5000002,0,25000)"
         id="path540"
         d="m 979.81524,1473.0104 c -14.94878,-14.2663 -28.12201,-18.1761 -47.16159,-13.9975 -7.55296,1.6576 -15.28722,3.2084 -17.18724,3.4463 -1.98585,0.2485 -9.39282,-10.1105 -17.42193,-24.3655 -12.37203,-21.9656 -14.0751,-26.7047 -14.91064,-41.4916 -1.19935,-21.2256 4.38162,-34.6392 22.29137,-53.5761 14.83765,-15.6886 28.52674,-21.2062 52.61235,-21.2062 17.79979,0 56.07734,10.7357 63.65314,17.8528 3.0528,2.8679 8.4159,12.372 11.918,21.1203 6.0999,15.2372 6.2081,16.3756 2.5738,27.0804 -2.0867,6.146 -3.1053,13.918 -2.2637,17.2712 2.4589,9.7972 -2.642,16.6735 -11.1119,14.9795 -5.5825,-1.1165 -8.0049,-0.1695 -11.1867,4.3731 -5.0349,7.1884 -5.1278,12.8598 -0.3617,22.0765 3.5841,6.9308 3.3505,7.6281 -7.4854,22.3476 -6.15163,8.3565 -11.46805,15.1675 -11.8142,15.1357 -0.34616,-0.032 -5.81081,-5.0027 -12.14366,-11.0465 z"
         style="fill:none;stroke-width:2.49684596" /></g></g></svg>